<svg id="Layer_1" data-name="Layer 1" xmlns="http://www.w3.org/2000/svg" xmlns:xlink="http://www.w3.org/1999/xlink" width="463.8159" height="504.5395" viewBox="0 0 463.8159 504.5395"><defs><style>.cls-1,.cls-11,.cls-14,.cls-18,.cls-28,.cls-30,.cls-31,.cls-32,.cls-33,.cls-41,.cls-45,.cls-48,.cls-49,.cls-51,.cls-6,.cls-8{fill:none;}.cls-1,.cls-33{stroke:#fff;}.cls-1,.cls-14,.cls-18,.cls-28,.cls-30,.cls-31,.cls-32,.cls-33,.cls-41,.cls-45,.cls-48,.cls-49,.cls-51,.cls-6{stroke-miterlimit:10;}.cls-2{fill:#dee7ff;}.cls-3{fill:#fff9ff;}.cls-4{fill:#fff;}.cls-5{fill:#1db2aa;}.cls-14,.cls-6{stroke:#008ff7;}.cls-7{fill:#3bb68b;}.cls-11,.cls-28,.cls-8{stroke:#4242a8;}.cls-11,.cls-28,.cls-31,.cls-33,.cls-41,.cls-45,.cls-48,.cls-8{stroke-linecap:round;}.cls-11,.cls-8{stroke-linejoin:round;}.cls-8{stroke-width:0.419px;}.cls-9{fill:#94ccff;}.cls-10{fill:#67adf6;}.cls-11{stroke-width:0.5828px;}.cls-12{fill:url(#Безымянный_градиент_60);}.cls-13{fill:#006b61;opacity:0.14;}.cls-14{stroke-width:3px;}.cls-15{fill:#008ff7;}.cls-16{fill:#b7dcff;}.cls-17{fill:#0e9e90;}.cls-18,.cls-48{stroke:#fff9ff;}.cls-19{fill:#7dc1ff;}.cls-20{fill:#ffc1c1;}.cls-21{fill:#2c8c6c;}.cls-22{fill:#003887;}.cls-23{fill:#003f96;}.cls-24{fill:url(#Безымянный_градиент_66);}.cls-25{fill:url(#Безымянный_градиент_66-2);}.cls-26{fill:url(#Безымянный_градиент_36);}.cls-27{fill:#f49797;}.cls-28,.cls-30,.cls-31{stroke-width:0.4425px;}.cls-29{fill:#4242a8;}.cls-30{stroke:#0049ab;}.cls-31{stroke:#ffa0a0;}.cls-32{stroke:#67adf6;stroke-width:3.3384px;}.cls-34{fill:#ff605b;}.cls-35{fill:#ffadaa;}.cls-36{fill:#ff918e;}.cls-37{fill:url(#Безымянный_градиент_36-2);}.cls-38{fill:url(#Безымянный_градиент_36-3);}.cls-39{fill:#007ae0;}.cls-40{fill:#cbe3f5;}.cls-41{stroke:#cbe3f5;}.cls-42{fill:#003b8c;}.cls-43{fill:url(#Безымянный_градиент_36-4);}.cls-44{fill:#ffa0a0;}.cls-45{stroke:#003f96;}.cls-45,.cls-48{stroke-width:0.5px;}.cls-46{fill:#b8daf5;}.cls-47{fill:#004aae;}.cls-49{stroke:#3bb68b;}.cls-50{fill:url(#Безымянный_градиент_60-2);}.cls-51{stroke:#94ccff;}</style><linearGradient id="Безымянный_градиент_60" x1="342.7545" y1="206.6255" x2="344.9022" y2="262.4664" gradientUnits="userSpaceOnUse"><stop offset="0.1518" stop-color="#d3deff"/><stop offset="1" stop-color="#d3deff" stop-opacity="0"/></linearGradient><linearGradient id="Безымянный_градиент_66" x1="387.9578" y1="318.4454" x2="385.8101" y2="269.7636" gradientUnits="userSpaceOnUse"><stop offset="0.1518" stop-color="#d3deff"/><stop offset="0.9942" stop-color="#fff"/></linearGradient><linearGradient id="Безымянный_градиент_66-2" x1="399.8246" y1="359.7008" x2="330.3242" y2="287.3867" xlink:href="#Безымянный_градиент_66"/><linearGradient id="Безымянный_градиент_36" x1="376.2101" y1="197.0352" x2="374.6014" y2="278.0039" gradientUnits="userSpaceOnUse"><stop offset="0.0039" stop-color="#ff8989"/><stop offset="1" stop-color="#ffc1c1"/></linearGradient><linearGradient id="Безымянный_градиент_36-2" x1="155.5231" y1="285.3333" x2="122.9336" y2="329.9756" gradientTransform="matrix(0.8185, -0.5745, 0.5745, 0.8185, -134.2093, 219.8907)" xlink:href="#Безымянный_градиент_36"/><linearGradient id="Безымянный_градиент_36-3" x1="87.5665" y1="283.5264" x2="156.279" y2="283.5264" gradientTransform="translate(-103.2569 150.2089) rotate(-24.1556)" xlink:href="#Безымянный_градиент_36"/><linearGradient id="Безымянный_градиент_36-4" x1="79.6629" y1="282.0026" x2="130.736" y2="282.0026" xlink:href="#Безымянный_градиент_36"/><linearGradient id="Безымянный_градиент_60-2" x1="112.1061" y1="75.7301" x2="114.0359" y2="125.9057" xlink:href="#Безымянный_градиент_60"/></defs><title>Clinic Image</title><path class="cls-1" d="M11.171,234.8319h1.635a0,0,0,0,1,0,0v31.8353a0,0,0,0,1,0,0H11.171a7.4928,7.4928,0,0,1-7.4928-7.4928v-16.85A7.4928,7.4928,0,0,1,11.171,234.8319Z"/><rect class="cls-2" x="237.7652" y="51.8028" width="197.5295" height="162.3956"/><rect class="cls-3" x="225.3826" y="211.7893" width="216.9547" height="12.8566"/><rect class="cls-3" x="231.5373" y="52.2358" width="11.6493" height="160.9576"/><rect class="cls-3" x="424.22" y="52.2358" width="11.6493" height="160.9576"/><rect class="cls-3" x="326.673" y="52.2358" width="11.6493" height="160.9576"/><path class="cls-3" d="M398.1879,190.3472h44.1709c1.1917-3.0019,1.5343-6.5582-.0376-9.38s-5.5109-4.3914-8.23-2.6481c-.9718.6231-1.9678,1.6486-3.0668,1.2949a2.51,2.51,0,0,1-1.146-.958c-2.1254-2.7989-2.9943-6.6057-5.815-8.7022-3.498-2.6-9.2932-.9082-10.8429,3.1654-.7487,1.9681-.9134,4.6154-2.888,5.3462-1.3323.4932-2.7708-.235-4.1774-.4331a5.7989,5.7989,0,0,0-6.3073,4.7855,11.2871,11.2871,0,0,0-11.3772,7.529Z" transform="translate(-31 -1.2626)"/><path class="cls-3" d="M290.4012,162.9109h73.7061c1.9884-5.0091,2.56-10.9434-.0629-15.6513s-9.1958-7.3277-13.7325-4.4187c-1.6217,1.04-3.2837,2.7508-5.1174,2.1608a4.19,4.19,0,0,1-1.9122-1.5986c-3.5468-4.6705-4.9965-11.0227-9.7033-14.5212-5.8371-4.3385-15.5072-1.5154-18.0932,5.2821-1.2494,3.2839-1.5241,7.7015-4.8192,8.9211-2.2229.8226-4.6234-.3924-6.9707-.7228a9.6763,9.6763,0,0,0-10.5246,7.9853,18.8346,18.8346,0,0,0-18.9847,12.5633Z" transform="translate(-31 -1.2626)"/><rect class="cls-4" x="228.8872" y="53.5185" width="213.4501" height="7.0706"/><rect class="cls-5" x="228.8872" y="60.5892" width="213.4501" height="4.2322"/><rect class="cls-4" x="228.8872" y="64.2444" width="213.4501" height="7.0706"/><rect class="cls-5" x="228.8872" y="71.315" width="213.4501" height="4.2322"/><rect class="cls-4" x="228.8872" y="74.9702" width="213.4501" height="7.0706"/><rect class="cls-5" x="228.8872" y="82.0409" width="213.4501" height="4.2322"/><rect class="cls-4" x="228.8872" y="85.6961" width="213.4501" height="7.0706"/><rect class="cls-5" x="228.8872" y="92.7667" width="213.4501" height="4.2322"/><rect class="cls-4" x="228.8872" y="96.422" width="213.4501" height="7.0706"/><rect class="cls-5" x="228.8872" y="103.4926" width="213.4501" height="4.2322"/><rect class="cls-4" x="228.8872" y="107.1478" width="213.4501" height="7.0706"/><rect class="cls-5" x="228.8872" y="114.2184" width="213.4501" height="4.2322"/><rect class="cls-5" x="228.8872" y="47.3359" width="213.4501" height="6.6267"/><line class="cls-6" x1="237.7652" y1="51.8028" x2="237.7652" y2="115.4331"/><line class="cls-6" x1="434.0394" y1="51.8028" x2="434.0394" y2="115.4331"/><path class="cls-7" d="M292.7547,183.3073a3.002,3.002,0,0,1,1.1575-2.4582c.3587-.2107.7851-.2844,1.1436-.4955a3.33,3.33,0,0,0,1.1941-2.75,8.0692,8.0692,0,0,1,.8669-3.7621c.699-1.0972,2.2968-1.7445,3.3367-.9628.9473.712,1.42,2.434,2.5744,2.1673a1.898,1.898,0,0,0,.8139-.5267q1.319-1.2231,2.6381-2.446c1.0481-.9717,2.2292-2.0006,3.6577-2.0446,2.2087-.0678,3.824,2.5,3.3892,4.6669-.3133,1.561-1.3812,3.2141-.5976,4.6a5.4528,5.4528,0,0,0,1.36,1.3351,7.2384,7.2384,0,0,1-2.4191,12.4019,14.4954,14.4954,0,0,1-3.4518.5424C300.8194,194.1481,291.9676,193.3256,292.7547,183.3073Z" transform="translate(-31 -1.2626)"/><path class="cls-8" d="M297.4368,179.53a3.9484,3.9484,0,0,0,2.1145,3.076.8952.8952,0,0,0,.7375.1057.9113.9113,0,0,0,.4225-.5484,4.7719,4.7719,0,0,0,.2725-2.3685" transform="translate(-31 -1.2626)"/><path class="cls-8" d="M307.4578,174.7166a3.5952,3.5952,0,0,0-.8575,1.4913,1.234,1.234,0,0,0,.6886,1.43c1.075.3418,1.7412-1.3208,2.84-1.5741" transform="translate(-31 -1.2626)"/><path class="cls-8" d="M305.6781,181.8763a2.124,2.124,0,0,0-.19,1.1064.7317.7317,0,0,0,.8.6272.9057.9057,0,0,0,.47-.3622,3.0348,3.0348,0,0,0,.5674-1.2375" transform="translate(-31 -1.2626)"/><path class="cls-8" d="M311.6522,182.7392a1.4522,1.4522,0,0,0-.0345,1.13.7641.7641,0,0,0,.3706.4378.6655.6655,0,0,0,.6307-.0894,1.4452,1.4452,0,0,0,.4192-.509,3.6179,3.6179,0,0,0,.4126-1.2359" transform="translate(-31 -1.2626)"/><path class="cls-8" d="M293.9411,185.97a4.0993,4.0993,0,0,0,.4808,1.1435,1.1121,1.1121,0,0,0,.3457.3869.4607.4607,0,0,0,.4945.0112.6808.6808,0,0,0,.2151-.3749,11.6668,11.6668,0,0,0,.4133-1.909" transform="translate(-31 -1.2626)"/><path class="cls-8" d="M301.1471,185.95a1.6672,1.6672,0,0,0-.0228,1.55.7058.7058,0,0,0,.7074.4474.7579.7579,0,0,0,.3217-.1944,2.9623,2.9623,0,0,0,.7172-.9833" transform="translate(-31 -1.2626)"/><path class="cls-8" d="M305.4374,189.1259a3.7585,3.7585,0,0,0,.1516.7461c.1636.5245.5263,1.069,1.073,1.1236a1.1066,1.1066,0,0,0,.9017-.3917,2.21,2.21,0,0,0,.449-.9057,4.5062,4.5062,0,0,0,.1534-1.4452" transform="translate(-31 -1.2626)"/><path class="cls-8" d="M311.7567,188.8631a1.5857,1.5857,0,0,0,1.0273.9589,1.0979,1.0979,0,0,0,.5346.0509,1.0457,1.0457,0,0,0,.6764-.5336,3.1015,3.1015,0,0,0,.2856-.8384l-.0624.0837" transform="translate(-31 -1.2626)"/><path class="cls-8" d="M298.7545,176.3145a3.0374,3.0374,0,0,1-.217-.8254,1.0624,1.0624,0,0,1,.1112-.7078.742.742,0,0,1,.9077-.23.9871.9871,0,0,1,.5341.8139" transform="translate(-31 -1.2626)"/><path class="cls-8" d="M309.3107,173.014c.0888-.2869.4649-.3424.7651-.34a.6817.6817,0,0,1,.3273.0576c.2739.151.2185.5548.1248.8531q-.1827.5826-.3655,1.1652" transform="translate(-31 -1.2626)"/><path class="cls-8" d="M298.5691,190.4736a.433.433,0,0,0,.1.56,1.0578,1.0578,0,0,0,.58.21,4.3768,4.3768,0,0,0,3.081-.7927" transform="translate(-31 -1.2626)"/><polygon class="cls-9" points="279.418 212.586 268.131 212.586 262.761 190.559 284.788 190.559 279.418 212.586"/><rect class="cls-9" x="261.7057" y="190.5592" width="24.1378" height="5.3697"/><polygon class="cls-10" points="263.916 195.929 283.479 195.929 282.551 199.734 264.482 197.937 263.916 195.929"/><path class="cls-7" d="M335.7465,169.88c.1027-1.3074.4792-2.7553,1.61-3.4193.4991-.2931,1.092-.3956,1.5907-.6892,1.2476-.7344,1.5452-2.3816,1.6608-3.8246.1447-1.8037.2337-3.7067,1.206-5.2329s3.1947-2.4264,4.6411-1.3391c1.3176.99,1.9748,3.3855,3.5809,3.0146a2.6416,2.6416,0,0,0,1.132-.7327l3.67-3.4023c1.4578-1.3514,3.1007-2.7827,5.0876-2.8438,3.0722-.0944,5.319,3.4778,4.7142,6.4914-.4358,2.1713-1.9212,4.4706-.8312,6.3984a7.5838,7.5838,0,0,0,1.8923,1.857,10.0684,10.0684,0,0,1-3.3649,17.25,20.1752,20.1752,0,0,1-4.8013.7544C346.964,184.959,334.6518,183.815,335.7465,169.88Z" transform="translate(-31 -1.2626)"/><path class="cls-11" d="M342.2591,164.6265a5.4921,5.4921,0,0,0,2.9413,4.2786,1.2446,1.2446,0,0,0,1.0257.147,1.2675,1.2675,0,0,0,.5877-.7627,6.6353,6.6353,0,0,0,.379-3.2945" transform="translate(-31 -1.2626)"/><path class="cls-11" d="M356.1977,157.9308a5.0013,5.0013,0,0,0-1.1926,2.0744,1.7162,1.7162,0,0,0,.9578,1.989c1.4953.4754,2.4219-1.8371,3.9509-2.1894" transform="translate(-31 -1.2626)"/><path class="cls-11" d="M353.7224,167.89a2.9522,2.9522,0,0,0-.2644,1.539,1.0176,1.0176,0,0,0,1.1123.8723,1.26,1.26,0,0,0,.6543-.5036,4.2212,4.2212,0,0,0,.7892-1.7214" transform="translate(-31 -1.2626)"/><path class="cls-11" d="M362.032,169.09a2.0207,2.0207,0,0,0-.0479,1.5724,1.0636,1.0636,0,0,0,.5155.609.9251.9251,0,0,0,.8771-.1244,2.0064,2.0064,0,0,0,.5831-.7081,5.0276,5.0276,0,0,0,.574-1.719" transform="translate(-31 -1.2626)"/><path class="cls-11" d="M337.3968,173.5834a5.7006,5.7006,0,0,0,.6688,1.5906,1.5442,1.5442,0,0,0,.4809.5381.641.641,0,0,0,.6879.0157.9471.9471,0,0,0,.299-.5216,16.2426,16.2426,0,0,0,.575-2.6552" transform="translate(-31 -1.2626)"/><path class="cls-11" d="M347.42,173.5558a2.3183,2.3183,0,0,0-.0316,2.156.9818.9818,0,0,0,.9838.6223,1.055,1.055,0,0,0,.4475-.27,4.12,4.12,0,0,0,.9976-1.3677" transform="translate(-31 -1.2626)"/><path class="cls-11" d="M353.3875,177.9734a5.2168,5.2168,0,0,0,.2111,1.0377c.2274.73.7319,1.4871,1.4923,1.5629a1.5382,1.5382,0,0,0,1.2542-.5448,3.0735,3.0735,0,0,0,.6246-1.26,6.2684,6.2684,0,0,0,.2134-2.01" transform="translate(-31 -1.2626)"/><path class="cls-11" d="M362.1773,177.6078a2.2059,2.2059,0,0,0,1.429,1.3339,1.5276,1.5276,0,0,0,.7437.0707,1.454,1.454,0,0,0,.9408-.742,4.31,4.31,0,0,0,.3971-1.1663l-.0868.1165" transform="translate(-31 -1.2626)"/><path class="cls-11" d="M344.0921,160.1534a4.2251,4.2251,0,0,1-.302-1.1481,1.4784,1.4784,0,0,1,.1547-.9845,1.0322,1.0322,0,0,1,1.2626-.32,1.3724,1.3724,0,0,1,.7429,1.1319" transform="translate(-31 -1.2626)"/><path class="cls-11" d="M358.7751,155.5626c.1235-.3991.6466-.4763,1.0643-.4735a.948.948,0,0,1,.4551.08c.381.21.304.7716.1738,1.1867q-.2544.81-.5086,1.6207" transform="translate(-31 -1.2626)"/><path class="cls-11" d="M343.834,179.8479a.6024.6024,0,0,0,.1394.7793,1.4729,1.4729,0,0,0,.8071.292,6.0889,6.0889,0,0,0,4.2855-1.1026" transform="translate(-31 -1.2626)"/><polygon class="cls-9" points="329.316 211.099 313.615 211.099 306.146 180.461 336.785 180.461 329.316 211.099"/><rect class="cls-9" x="304.6784" y="180.4606" width="33.5743" height="7.4689"/><polygon class="cls-10" points="307.753 187.93 334.964 187.93 333.674 193.223 308.541 190.723 307.753 187.93"/><polygon class="cls-12" points="463.816 284.534 246.861 284.534 225.383 224.646 442.337 224.646 463.816 284.534"/><path class="cls-13" d="M461.0447,475.5951c0,2.7324-93.4021,4.9473-208.6193,4.9473S43.806,478.3275,43.806,475.5951s93.4021-4.9473,208.6194-4.9473S461.0447,472.8627,461.0447,475.5951Z" transform="translate(-31 -1.2626)"/><line class="cls-14" x1="3.1413" y1="420.6859" x2="76.6971" y2="460.5413"/><circle class="cls-10" cx="12.806" cy="463.4191" r="11.3676"/><circle class="cls-15" cx="12.806" cy="463.4191" r="5.936"/><circle class="cls-10" cx="74.4855" cy="463.4191" r="11.3676"/><circle class="cls-15" cx="74.4855" cy="463.4191" r="5.936"/><line class="cls-14" x1="18.742" y1="463.4191" x2="63.1179" y2="463.4191"/><line class="cls-14" x1="74.69" y1="421.1025" x2="9.5402" y2="463.9592"/><line class="cls-14" x1="321.0152" y1="420.6859" x2="394.5711" y2="460.5413"/><circle class="cls-10" cx="330.68" cy="463.4191" r="11.3676"/><circle class="cls-15" cx="330.68" cy="463.4191" r="5.936"/><circle class="cls-10" cx="392.3595" cy="463.4191" r="11.3676"/><circle class="cls-15" cx="392.3595" cy="463.4191" r="5.936"/><line class="cls-14" x1="336.616" y1="463.4191" x2="380.9919" y2="463.4191"/><line class="cls-14" x1="392.564" y1="421.1025" x2="327.4142" y2="463.9592"/><path class="cls-3" d="M415.9,257.7918h39.34a0,0,0,0,1,0,0V390.2045a0,0,0,0,1,0,0H394.4153a0,0,0,0,1,0,0V279.2769A21.4851,21.4851,0,0,1,415.9,257.7918Z" transform="translate(99.3865 -123.0871) rotate(19.2262)"/><path class="cls-16" d="M32.04,351.3116H394.9987a0,0,0,0,1,0,0v33.5356a17.1861,17.1861,0,0,1-17.1861,17.1861H32.04a0,0,0,0,1,0,0V351.3116A0,0,0,0,1,32.04,351.3116Z" transform="translate(396.0387 752.0823) rotate(180)"/><path class="cls-9" d="M78.8653,351.8152H441.8239a0,0,0,0,1,0,0v33.5356a17.1861,17.1861,0,0,1-17.1861,17.1861H78.8653a0,0,0,0,1,0,0V351.8152A0,0,0,0,1,78.8653,351.8152Z" transform="translate(489.6892 753.0893) rotate(180)"/><path class="cls-5" d="M90.6022,397.479H441.8239a0,0,0,0,1,0,0v28.304a0,0,0,0,1,0,0H78.8653a0,0,0,0,1,0,0V409.2159A11.7369,11.7369,0,0,1,90.6022,397.479Z" transform="translate(489.6892 821.9994) rotate(180)"/><path class="cls-17" d="M.5366,396.2164H47.8653a0,0,0,0,1,0,0V424.52a0,0,0,0,1,0,0H7.0517a6.5151,6.5151,0,0,1-6.5151-6.5151V396.2164A0,0,0,0,1,.5366,396.2164Z"/><path class="cls-5" d="M460.7834,260.8986a11.744,11.744,0,0,0-14.9562,7.2217l-28.8948,82.8526a11.7442,11.7442,0,0,0,7.2217,14.9564l23.6184,8.2368,36.6293-105.0307ZM435.2572,354.24a4.3122,4.3122,0,1,1-8.1434-2.84l26.8495-76.988a4.3122,4.3122,0,1,1,8.1434,2.84Z" transform="translate(-31 -1.2626)"/><line class="cls-18" x1="440.514" y1="277.1761" x2="411.5933" y2="360.1031"/><path class="cls-17" d="M421.6328,369.47h21.9918a0,0,0,0,1,0,0v29.454a0,0,0,0,1,0,0h-4.1318a17.86,17.86,0,0,1-17.86-17.86V369.47A0,0,0,0,1,421.6328,369.47Z" transform="translate(119.6464 -122.2991) rotate(19.2263)"/><path class="cls-9" d="M65.8292,315.9839H46.72A15.7385,15.7385,0,0,0,31,331.7049v67.4237H81.55V331.7049A15.7389,15.7389,0,0,0,65.8292,315.9839Zm1.4648,3.3151v76.608H58.4588V319.2055h7.37A12.5124,12.5124,0,0,1,67.294,319.299Zm-13.3991-.0935V395.907H44.88v-76.55a12.479,12.479,0,0,1,1.84-.151ZM34.2216,331.7049a12.4921,12.4921,0,0,1,6.0945-10.7139v74.916H34.2216Zm44.107,64.2021H71.8579V320.7624a12.5063,12.5063,0,0,1,6.4707,10.9425Z" transform="translate(-31 -1.2626)"/><path class="cls-19" d="M358.2314,373.6554c7.9826-.4611,8.411-4.5977.56-5.3-4.2939-.3839-8.7035-.6225-13.09-.7486-12.1774-.3507-24.4048.0933-36.611.2612-24.2363.3337-48.4626-.3925-72.7006-.24-12.0454.0759-24.1147.3621-35.9917,1.1306-8.468.5479-22.7923.9283-27.6171,3.97-6.48,4.0849,8.3739,2.4444,14.3115,2.1572,12.2935-.5944,24.697-.8312,37.09-.8784,24.5481-.0933,49.0516.5712,73.583.775C317.9337,374.9507,338.29,374.8072,358.2314,373.6554Z" transform="translate(-31 -1.2626)"/><path class="cls-20" d="M393.3654,291.2622s-25.4492,61.176-50.238,47.7267c-24.1592-13.1077-46.7713-58.6457-46.7713-58.6457l7.0268-1.995s24.97,25.29,40.004,32.1535a6.7853,6.7853,0,0,0,7.8952-1.694c7.1123-8.0412,12.8791-19.8415,12.8791-19.8415" transform="translate(-31 -1.2626)"/><path class="cls-5" d="M383.7235,315.4708l-27.7482-20.0089,21.882-29.038a14.5816,14.5816,0,0,1,20.1935-4.1789h0a14.5814,14.5814,0,0,1,4.1789,20.1934Z" transform="translate(-31 -1.2626)"/><path class="cls-20" d="M287.31,279.4943a8.2476,8.2476,0,0,0,5.482,2.1583l5.0076.5055,3.8243-.138,9.4089,3.777c-1.6859-1.6047-8.8881-8.7381-8.8881-8.7381l-6.842-4.4808s-11.6341-7.29-13.8913,1.4842c-10.302-3.4021-9.5346.0266-9.5346.0266l8.8545,3.1013Z" transform="translate(-31 -1.2626)"/><rect class="cls-21" x="295.4522" y="257.2765" width="2.6177" height="19.1238" transform="translate(-98.6213 428.3498) rotate(-66.0318)"/><path class="cls-7" d="M285.39,263.6569h15.1238a1.9734,1.9734,0,0,1,1.9734,1.9734v20.6251a1.9734,1.9734,0,0,1-1.9734,1.9734H285.3905a1.9734,1.9734,0,0,1-1.9734-1.9734V265.63A1.9733,1.9733,0,0,1,285.39,263.6569Z" transform="translate(-109.2008 430.2785) rotate(-66.0323)"/><path class="cls-7" d="M296.476,253.0709h2.9685a.8549.8549,0,0,1,.8549.8549v20.43a.855.855,0,0,1-.855.855H296.476a.855.855,0,0,1-.855-.855v-20.43A.855.855,0,0,1,296.476,253.0709Z" transform="translate(-95.4428 427.8476) rotate(-66.0324)"/><path class="cls-21" d="M287.7316,261.6733h0a.3017.3017,0,0,1-.1532-.398l1.2989-2.9216a.3016.3016,0,0,1,.398-.153h0a.3015.3015,0,0,1,.1531.398L288.13,261.52A.3014.3014,0,0,1,287.7316,261.6733Z" transform="translate(-31 -1.2626)"/><path class="cls-21" d="M288.7269,262.1158h0a.3014.3014,0,0,1-.153-.398l1.2988-2.9215a.3017.3017,0,0,1,.398-.1532h0a.3016.3016,0,0,1,.153.3981l-1.2987,2.9216A.3016.3016,0,0,1,288.7269,262.1158Z" transform="translate(-31 -1.2626)"/><path class="cls-21" d="M289.7224,262.5583h0a.3013.3013,0,0,1-.153-.3979l1.2988-2.9216a.3016.3016,0,0,1,.398-.1531h0a.3016.3016,0,0,1,.153.3981l-1.2987,2.9215A.3015.3015,0,0,1,289.7224,262.5583Z" transform="translate(-31 -1.2626)"/><path class="cls-21" d="M290.7179,263.0009h0a.3016.3016,0,0,1-.1531-.398l1.2989-2.9216a.3015.3015,0,0,1,.3979-.1531h0a.3017.3017,0,0,1,.1531.3981l-1.2989,2.9216A.3015.3015,0,0,1,290.7179,263.0009Z" transform="translate(-31 -1.2626)"/><path class="cls-21" d="M291.7133,263.4434h0a.3015.3015,0,0,1-.153-.398l1.2987-2.9215a.3015.3015,0,0,1,.3981-.1531h0a.3014.3014,0,0,1,.153.398l-1.2988,2.9216A.3014.3014,0,0,1,291.7133,263.4434Z" transform="translate(-31 -1.2626)"/><path class="cls-21" d="M292.7088,263.886h0a.3016.3016,0,0,1-.1531-.398l1.2988-2.9217a.3016.3016,0,0,1,.3981-.153h0a.3015.3015,0,0,1,.153.3981l-1.2988,2.9215A.3016.3016,0,0,1,292.7088,263.886Z" transform="translate(-31 -1.2626)"/><path class="cls-21" d="M293.7042,264.3285h0a.3016.3016,0,0,1-.1531-.398l1.2989-2.9216a.3014.3014,0,0,1,.3979-.1531h0a.3018.3018,0,0,1,.1532.3981l-1.2989,2.9216A.3016.3016,0,0,1,293.7042,264.3285Z" transform="translate(-31 -1.2626)"/><path class="cls-21" d="M294.7,264.771h0a.3015.3015,0,0,1-.153-.3979l1.2988-2.9217a.3015.3015,0,0,1,.398-.153h0a.3015.3015,0,0,1,.153.3981l-1.2988,2.9215A.3014.3014,0,0,1,294.7,264.771Z" transform="translate(-31 -1.2626)"/><path class="cls-21" d="M295.6951,265.2136h0a.3014.3014,0,0,1-.153-.398l1.2988-2.9217a.3016.3016,0,0,1,.398-.153h0a.3015.3015,0,0,1,.153.3981l-1.2988,2.9215A.3016.3016,0,0,1,295.6951,265.2136Z" transform="translate(-31 -1.2626)"/><path class="cls-21" d="M296.6906,265.6561h0a.3014.3014,0,0,1-.153-.398l1.2987-2.9216a.3015.3015,0,0,1,.3981-.153h0a.3016.3016,0,0,1,.153.398l-1.2989,2.9216A.3013.3013,0,0,1,296.6906,265.6561Z" transform="translate(-31 -1.2626)"/><path class="cls-21" d="M297.686,266.0986h0a.3016.3016,0,0,1-.1531-.3979l1.2989-2.9217a.3014.3014,0,0,1,.398-.153h0a.3016.3016,0,0,1,.1531.3981l-1.2989,2.9215A.3014.3014,0,0,1,297.686,266.0986Z" transform="translate(-31 -1.2626)"/><path class="cls-21" d="M298.6814,266.5412h0a.3014.3014,0,0,1-.153-.398l1.2988-2.9216a.3016.3016,0,0,1,.398-.1531h0a.3015.3015,0,0,1,.153.3981l-1.2987,2.9216A.3017.3017,0,0,1,298.6814,266.5412Z" transform="translate(-31 -1.2626)"/><path class="cls-21" d="M299.6769,266.9837h0a.3013.3013,0,0,1-.153-.3979l1.2988-2.9217a.3014.3014,0,0,1,.398-.153h0a.3016.3016,0,0,1,.153.398l-1.2987,2.9216A.3016.3016,0,0,1,299.6769,266.9837Z" transform="translate(-31 -1.2626)"/><path class="cls-21" d="M300.6724,267.4263h0a.3016.3016,0,0,1-.1531-.398l1.2989-2.9217a.3015.3015,0,0,1,.3979-.153h0a.3016.3016,0,0,1,.1531.398l-1.2989,2.9216A.3014.3014,0,0,1,300.6724,267.4263Z" transform="translate(-31 -1.2626)"/><path class="cls-21" d="M301.6678,267.8688h0a.3016.3016,0,0,1-.153-.3981l1.2987-2.9215a.3017.3017,0,0,1,.3981-.1531h0a.3015.3015,0,0,1,.153.398l-1.2988,2.9217A.3015.3015,0,0,1,301.6678,267.8688Z" transform="translate(-31 -1.2626)"/><path class="cls-21" d="M302.6633,268.3113h0a.3014.3014,0,0,1-.153-.398l1.2987-2.9216a.3015.3015,0,0,1,.3981-.153h0a.3015.3015,0,0,1,.153.398l-1.2988,2.9216A.3014.3014,0,0,1,302.6633,268.3113Z" transform="translate(-31 -1.2626)"/><path class="cls-21" d="M303.6587,268.7539h0a.3017.3017,0,0,1-.1531-.3981l1.2989-2.9216a.3015.3015,0,0,1,.3979-.153h0a.3016.3016,0,0,1,.1531.398l-1.2988,2.9217A.3016.3016,0,0,1,303.6587,268.7539Z" transform="translate(-31 -1.2626)"/><path class="cls-21" d="M304.6541,269.1964h0a.3017.3017,0,0,1-.153-.3981l1.2988-2.9215a.3014.3014,0,0,1,.398-.153h0a.3013.3013,0,0,1,.153.3979l-1.2987,2.9217A.3015.3015,0,0,1,304.6541,269.1964Z" transform="translate(-31 -1.2626)"/><path class="cls-21" d="M305.65,269.639h0a.3016.3016,0,0,1-.153-.3981l1.2988-2.9216a.3015.3015,0,0,1,.398-.153h0a.3014.3014,0,0,1,.153.398l-1.2988,2.9216A.3016.3016,0,0,1,305.65,269.639Z" transform="translate(-31 -1.2626)"/><path class="cls-21" d="M306.6451,270.0815h0a.3017.3017,0,0,1-.1531-.3981l1.2989-2.9215a.3015.3015,0,0,1,.398-.1531h0a.3016.3016,0,0,1,.153.398l-1.2989,2.9217A.3014.3014,0,0,1,306.6451,270.0815Z" transform="translate(-31 -1.2626)"/><rect class="cls-4" x="287.1429" y="265.539" width="11.2063" height="21.7359" rx="0.8933" ry="0.8933" transform="translate(-109.7476 430.3652) rotate(-66.0322)"/><path class="cls-20" d="M287.3665,275.68a1.4758,1.4758,0,0,0,.5924.0025c.3331-.0864,1.1577-.6517-.05-1.5913-1.7377-1.3516-3.6209-2.0859-5.3784-3.4117a.8278.8278,0,0,0-1.1933-.0479C276.2478,273.8375,284.7791,275.4087,287.3665,275.68Z" transform="translate(-31 -1.2626)"/><path class="cls-20" d="M290.5656,270.0979a1.0985,1.0985,0,0,0,.6115-.1768c.49-.2452.0057-1.2475-.2019-1.4248-1.6742-1.43-3.4886-2.0731-5.2461-3.3988a.8278.8278,0,0,0-1.1933-.0479C279.4468,268.2556,287.9781,269.8268,290.5656,270.0979Z" transform="translate(-31 -1.2626)"/><path class="cls-20" d="M288.8907,273.0354a1.097,1.097,0,0,0,.6115-.1769c.6212-.3112.16-1.0735-.0477-1.2508-1.6743-1.4294-3.6428-2.247-5.4-3.5728a.8278.8278,0,0,0-1.1933-.0479C277.7719,271.1932,286.3032,272.7642,288.8907,273.0354Z" transform="translate(-31 -1.2626)"/><path class="cls-20" d="M242.1464,335.0577c-3.2688,9.2413-15.3366,25.2617-22.7257,28.2033-3.5081,1.3966-7.2964,2.1473-10.7184,3.7225a2.2123,2.2123,0,0,0-.9417.6663,2.0386,2.0386,0,0,0,.3183,2.2435c1.86,2.546,5.5753,2.2216,8.4952,1.6017l8.3237-1.7673c3.5292-.7492,7.3914-1.459,10.7734.2235a35.37,35.37,0,0,0,3.893,2.1426,5.2094,5.2094,0,0,0,6.16-2.1814c.3247.0993,1.8482-4.9106,1.1918-7.5433s-.5641-5.8847-.79-8.5583c-.1806-2.1346,6.2848-12.7547,6.9543-14.7251C253.2083,338.7077,244.9705,334.3856,242.1464,335.0577Z" transform="translate(-31 -1.2626)"/><path class="cls-22" d="M366.144,325.2114s-4.6487,27.4707-38.7826,23.846c-28.7688-3.0551-55.9273-42.8831-55.9273-42.8831l-24.5252,43.7691-10.5123-4.16s10.92-70.4591,26.8726-71.3224,67.9131,34.6044,67.9131,34.6044Z" transform="translate(-31 -1.2626)"/><path class="cls-5" d="M381.95,345.2519l-26.2376-19.9948a6.19,6.19,0,0,1-1.9719-7.2807l14.55-35.337c5.0323-8.8917,18.0324-26.9832,27.3078-23.6287l32.5771,9.37c5.3952,4.1115,9.7079,11.8658,4.7551,18.365Z" transform="translate(-31 -1.2626)"/><path class="cls-20" d="M196.1035,354.8807c-9.2137,2.722-29.1291,2.7036-35.9727-1.1284-3.2489-1.8193-6.1675-4.2053-9.5025-5.8616a2.3581,2.3581,0,0,0-1.0993-.3261,1.8964,1.8964,0,0,0-1.5518,1.4836c-.8379,2.7932,1.7032,5.362,3.9848,7.1781l6.5043,5.1771c2.7577,2.195,5.69,4.6584,6.462,8.0974a31.1051,31.1051,0,0,0,.7286,4.0731,5.3462,5.3462,0,0,0,5.4939,3.3452c.1228.2955,4.9646-1.3642,6.6115-3.3145s4.2373-3.6913,6.1811-5.3461c1.5519-1.3213,13.809-2.4446,15.7566-3.0453C200.0736,365.098,198.3667,356.597,196.1035,354.8807Z" transform="translate(-31 -1.2626)"/><path class="cls-23" d="M385.8468,334.3391c2.1346.6356-2.6653,22.7636-19.29,31.9871-12.0226,6.67-31.4988,3.1743-41.7542-4.151-41.73-9.5222-144.4555,7.5-144.4555,7.5l-.77-13.3668S298.92,308.4563,385.8468,334.3391Z" transform="translate(-31 -1.2626)"/><path class="cls-24" d="M387.9791,338.4556l-8.9216-1.4235c-2.501-21.1573-2.4239-52.219,6.0889-76.3346l.73-.4047a13.3781,13.3781,0,0,1,9.7221-1.2821h0C384.8118,290.1318,389.2034,312.3485,387.9791,338.4556Z" transform="translate(-31 -1.2626)"/><path class="cls-20" d="M319.9738,269.9388a2.3469,2.3469,0,0,1,2.7766-.3235l8.689,4.9988a10.0729,10.0729,0,0,1,4.5434,5.5789l4.3742,8.3321-.6718,1.8085-3.52,7.181c-1.4095-.604-3.556-4.3009-3.556-4.3009l-3.1265-5.09s-14.6939-4.5305-9.6014-13.9147c-8.5031,4.6384-9.2768,1.8095-9.2768,1.8095Z" transform="translate(-31 -1.2626)"/><path class="cls-20" d="M431.06,286.5729s-11.6189,65.2317-38.7293,57.4608c-26.4221-7.5736-59.721-50.82-59.721-50.82l6.3155-7.4166s31.3365,26.917,47.499,30.3672a6.7854,6.7854,0,0,0,7.3422-3.3611c5.2052-9.389,8.2839-22.1569,8.2839-22.1569" transform="translate(-31 -1.2626)"/><path class="cls-5" d="M424.2216,322.885,392.8034,309.35l15.0852-33.0828a14.5815,14.5815,0,0,1,18.8121-8.4465h0a14.5815,14.5815,0,0,1,8.4466,18.8121Z" transform="translate(-31 -1.2626)"/><path class="cls-3" d="M342.6979,287.0892l-12.116,9.6065s20.1424,24.7811,27.9749,31.9472c6.9758,6.3823,27.7662,19.1913,27.7662,19.1913l3.6968-1.714a61.432,61.432,0,0,0-.6189-25.7539l-1.4853-6.1966Z" transform="translate(-31 -1.2626)"/><path class="cls-25" d="M334.926,295.8441l1.8656-.97c11.349,14.8013,29.6034,33.0385,46.7748,40.4186-.8159,1.8954-.2628,3.9176-.4636,5.9715-16.6791-8.5681-35.4122-25.3295-48.1768-45.42" transform="translate(-31 -1.2626)"/><path class="cls-26" d="M365.4813,236.8568h19.3934a0,0,0,0,1,0,0v24.1523a9.3128,9.3128,0,0,1-9.3128,9.3128h-2.2757a7.8049,7.8049,0,0,1-7.8049-7.8049v-25.66a0,0,0,0,1,0,0Z"/><path class="cls-27" d="M415.8748,242.4207s1.4636,1.7991-3.0967,7.6134c-5.48,6.987-16.2968,8.6873-16.2968,8.6873V252.01Z" transform="translate(-31 -1.2626)"/><path class="cls-20" d="M418.7471,217.5905a77.6585,77.6585,0,0,1-1.6563,23.3643c-.6254,2.7714-1.46,5.62-3.4793,7.7889-2.4492,2.6311-6.26,3.8657-9.9442,4.764-2.3188.5653-4.9142,1.017-7.0257-.013-2.7845-1.358-3.48-4.604-3.8661-7.4292-1.3843-10.1214-2.6824-20.5822.532-30.3622.4185-.3,3.4682-2.9764,3.8867-3.2758,3.4237-2.45,7.6611-2.8265,11.9612-2.0935S418.4288,213.6687,418.7471,217.5905Z" transform="translate(-31 -1.2626)"/><path class="cls-28" d="M395.74,231.0117a20.2226,20.2226,0,0,1-2.3526,6.8475c-.2626.47-.5482,1.025-.2866,1.4955.32.5754,1.2807.6707,1.5919,1.25" transform="translate(-31 -1.2626)"/><path class="cls-28" d="M397.5234,244.7229a6.3359,6.3359,0,0,0,4.6512-2.3022" transform="translate(-31 -1.2626)"/><path class="cls-4" d="M402.2122,230.4606c-.1206.816.1127,1.8355-.2695,2.5837a1.299,1.299,0,0,1-1.9249.648,1.2781,1.2781,0,0,1-.5868-.91,4.5764,4.5764,0,0,1-.1766-2.218,1.86,1.86,0,0,1,1.6868-1.424c.8322-.0077,1.2216.5257,1.271,1.3208" transform="translate(-31 -1.2626)"/><path class="cls-29" d="M399.521,230.9265a.7381.7381,0,0,1,.7235-.28.6732.6732,0,0,1,.3717.2656,1.5531,1.5531,0,0,1,.0854,1.28,1.87,1.87,0,0,1-.3691.8581.4312.4312,0,0,1-.2525.1553c-.2069.0281-.362-.1616-.4558-.33A1.7613,1.7613,0,0,1,399.521,230.9265Z" transform="translate(-31 -1.2626)"/><path class="cls-4" d="M399.6288,231.3729a.3484.3484,0,0,1-.1276-.0321.3588.3588,0,0,1-.132-.122.4537.4537,0,0,1-.0907-.2691.3043.3043,0,0,1,.1363-.2465.4838.4838,0,0,1,.6262.1681A.38.38,0,0,1,399.6288,231.3729Z" transform="translate(-31 -1.2626)"/><path class="cls-28" d="M401.7182,227.3828a3.2866,3.2866,0,0,1,1.7858,1.5558" transform="translate(-31 -1.2626)"/><path class="cls-4" d="M394.2292,231.4663a1.3962,1.3962,0,0,1-.35.5077,1.1017,1.1017,0,0,1-.85.2408,1.03,1.03,0,0,1-.7305-.459,1.4066,1.4066,0,0,1-.1713-.6,4.2894,4.2894,0,0,1,.1029-1.4685c.18-.73.9367-1.6959,1.731-.8808A2.508,2.508,0,0,1,394.2292,231.4663Z" transform="translate(-31 -1.2626)"/><path class="cls-29" d="M393.3278,231.549a.54.54,0,0,1-.39.3529.4876.4876,0,0,1-.2342-.045,1.018,1.018,0,0,1-.55-.6291c-.1539-.4705-.1591-2.054.807-1.7144C393.7867,229.804,393.5924,230.9976,393.3278,231.549Z" transform="translate(-31 -1.2626)"/><path class="cls-4" d="M393.1426,230.2717a.3525.3525,0,0,1-.1276-.0322.361.361,0,0,1-.132-.1219.4551.4551,0,0,1-.0907-.2692.3044.3044,0,0,1,.1363-.2466.4838.4838,0,0,1,.6261.1682A.38.38,0,0,1,393.1426,230.2717Z" transform="translate(-31 -1.2626)"/><path class="cls-28" d="M393.84,227.1054a10.7677,10.7677,0,0,0-2.6514.9463" transform="translate(-31 -1.2626)"/><path class="cls-23" d="M396.8291,223.5119c1.4718.09,3.3282-.3861,3.54-1.6978,2.4306,2.908,7.8716,3.1831,10.65.5384-.4425,4.7129,1.188,10.07,5.7961,12.3566a6.8308,6.8308,0,0,0,5.6913.3835c1.7662-.8049,2.7734-2.9685,1.74-4.4864a3.2423,3.2423,0,0,0,3.4135-3.9193c-.55-1.898-2.76-3.117-4.9354-3.2825,2.2009-2.2005,1.8562-5.8906-.33-8.1031s-5.7775-3.02-9.0306-2.5629c-.8278-2.7071-3.8109-4.4122-6.75-5.3646a19.0575,19.0575,0,0,0-11.5619-.4068C384.786,210.2931,385.0831,222.7976,396.8291,223.5119Z" transform="translate(-31 -1.2626)"/><path class="cls-23" d="M397.9037,209.2973a6.7593,6.7593,0,0,1,2.7017-3.524A14.7263,14.7263,0,0,1,413.7,204.0089a14.41,14.41,0,0,1,8.9721,8.9244,4.4435,4.4435,0,0,1,.1457,2.9787c-.5882,1.51-2.4063,2.3163-4.12,2.7516C412.8829,220.1409,395.6824,217.7454,397.9037,209.2973Z" transform="translate(-31 -1.2626)"/><path class="cls-30" d="M400.5289,213.6055c-.0639-1.6491,2.1477-2.9907,3.8264-2.3213a2.4372,2.4372,0,0,1,.6508,4.1066,12.5711,12.5711,0,0,1,4.6554-1.7817c1.69-.1731,3.6128.486,4.25,1.903A2.2855,2.2855,0,0,1,411.49,218.55" transform="translate(-31 -1.2626)"/><path class="cls-30" d="M391.7831,212.5916c-1.2436,2.2315.3852,5.3271,3.0937,5.88" transform="translate(-31 -1.2626)"/><path class="cls-20" d="M413.8894,230.1606a3.8165,3.8165,0,0,0,.4161,5.7651,4.9007,4.9007,0,0,0,6.3238-1.0473,3.8164,3.8164,0,0,0-.4162-5.765A4.9005,4.9005,0,0,0,413.8894,230.1606Z" transform="translate(-31 -1.2626)"/><path class="cls-31" d="M417.6722,230.1277a2.3261,2.3261,0,0,1,2.0548,1.221,2.0525,2.0525,0,0,1-.3142,2.2142,2.8484,2.8484,0,0,1-2.2862.9172" transform="translate(-31 -1.2626)"/><path class="cls-32" d="M201.9382,398.9108V366.0465a20.7472,20.7472,0,0,1,20.7472-20.7472H384.716a20.7473,20.7473,0,0,1,20.7472,20.7472v32.8643" transform="translate(-31 -1.2626)"/><rect class="cls-17" x="363.3383" y="384.3564" width="60.9792" height="120.1831"/><rect class="cls-5" x="359.8447" y="385.6191" width="34.4937" height="120.1831" transform="translate(723.183 890.1586) rotate(180)"/><rect class="cls-9" x="335.3394" y="404.1424" width="17.875" height="5.5615"/><line class="cls-33" x1="328.5009" y1="428.4268" x2="356.397" y2="428.4268"/><line class="cls-33" x1="328.5009" y1="466.6409" x2="356.397" y2="466.6409"/><rect class="cls-9" x="335.3394" y="445.4855" width="17.875" height="5.5615"/><rect class="cls-9" x="335.3394" y="483.1483" width="17.875" height="5.5615"/><path class="cls-34" d="M380.2664,363.616v-2.1389h8.2469v2.1389a2.4531,2.4531,0,0,0,1.3482,2.19l1.8685.9429a2.4531,2.4531,0,0,1,1.3483,2.19V383.43a2.4535,2.4535,0,0,1-2.4535,2.4534h-12.47a2.4535,2.4535,0,0,1-2.4534-2.4534V368.94a2.4531,2.4531,0,0,1,1.3483-2.19l1.8685-.9429A2.4533,2.4533,0,0,0,380.2664,363.616Z" transform="translate(-31 -1.2626)"/><rect class="cls-35" x="375.7014" y="370.3106" width="8.801" height="11.3362" transform="translate(729.2038 750.6948) rotate(180)"/><path class="cls-35" d="M380.1915,357.5191h8.3967a.5067.5067,0,0,1,.5067.5067V360.97a.5067.5067,0,0,1-.5067.5067h-8.3967a.5068.5068,0,0,1-.5068-.5068v-2.9444A.5068.5068,0,0,1,380.1915,357.5191Z" transform="translate(737.7796 717.7336) rotate(180)"/><path class="cls-36" d="M388.5069,361.1879h0a.2392.2392,0,0,0,.2393-.2392v-2.9012a.2392.2392,0,0,0-.2393-.2392h0a.2392.2392,0,0,0-.2392.2392v2.9012A.2393.2393,0,0,0,388.5069,361.1879Z" transform="translate(-31 -1.2626)"/><path class="cls-36" d="M387.6836,361.1879h0a.2393.2393,0,0,0,.2393-.2392v-2.9012a.2392.2392,0,0,0-.2393-.2392h0a.2393.2393,0,0,0-.2394.2392v2.9012A.2393.2393,0,0,0,387.6836,361.1879Z" transform="translate(-31 -1.2626)"/><path class="cls-36" d="M386.86,361.1879h0a.2392.2392,0,0,0,.2392-.2392v-2.9012a.2391.2391,0,0,0-.2392-.2392h0a.2392.2392,0,0,0-.2393.2392v2.9012A.2392.2392,0,0,0,386.86,361.1879Z" transform="translate(-31 -1.2626)"/><path class="cls-36" d="M386.0367,361.1879h0a.2393.2393,0,0,0,.2393-.2392v-2.9012a.2392.2392,0,0,0-.2393-.2392h0a.2391.2391,0,0,0-.2392.2392v2.9012A.2391.2391,0,0,0,386.0367,361.1879Z" transform="translate(-31 -1.2626)"/><path class="cls-36" d="M385.2133,361.1879h0a.2393.2393,0,0,0,.2393-.2392v-2.9012a.2392.2392,0,0,0-.2393-.2392h0a.2392.2392,0,0,0-.2393.2392v2.9012A.2392.2392,0,0,0,385.2133,361.1879Z" transform="translate(-31 -1.2626)"/><path class="cls-36" d="M384.39,361.1879h0a.2393.2393,0,0,0,.2392-.2392v-2.9012a.2392.2392,0,0,0-.2392-.2392h0a.2392.2392,0,0,0-.2393.2392v2.9012A.2392.2392,0,0,0,384.39,361.1879Z" transform="translate(-31 -1.2626)"/><path class="cls-36" d="M383.5664,361.1879h0a.2392.2392,0,0,0,.2393-.2392v-2.9012a.2392.2392,0,0,0-.2393-.2392h0a.2391.2391,0,0,0-.2392.2392v2.9012A.2391.2391,0,0,0,383.5664,361.1879Z" transform="translate(-31 -1.2626)"/><path class="cls-36" d="M382.743,361.1879h0a.2391.2391,0,0,0,.2392-.2392v-2.9012a.2391.2391,0,0,0-.2392-.2392h0a.2392.2392,0,0,0-.2393.2392v2.9012A.2393.2393,0,0,0,382.743,361.1879Z" transform="translate(-31 -1.2626)"/><path class="cls-36" d="M381.92,361.1879h0a.2392.2392,0,0,0,.2393-.2392v-2.9012a.2392.2392,0,0,0-.2393-.2392h0a.2392.2392,0,0,0-.2392.2392v2.9012A.2393.2393,0,0,0,381.92,361.1879Z" transform="translate(-31 -1.2626)"/><path class="cls-36" d="M381.0961,361.1879h0a.2392.2392,0,0,0,.2393-.2392v-2.9012a.2392.2392,0,0,0-.2393-.2392h0a.2392.2392,0,0,0-.2393.2392v2.9012A.2393.2393,0,0,0,381.0961,361.1879Z" transform="translate(-31 -1.2626)"/><path class="cls-36" d="M380.2727,361.1879h0a.2392.2392,0,0,0,.2393-.2392v-2.9012a.2392.2392,0,0,0-.2393-.2392h0a.2392.2392,0,0,0-.2393.2392v2.9012A.2393.2393,0,0,0,380.2727,361.1879Z" transform="translate(-31 -1.2626)"/><path class="cls-23" d="M408.3405,342.3633v-2.1389h8.2468v2.1389a2.4537,2.4537,0,0,0,1.3482,2.19l1.8685.9427a2.4535,2.4535,0,0,1,1.3483,2.19v35.9695a2.4533,2.4533,0,0,1-2.4534,2.4533h-12.47a2.4533,2.4533,0,0,1-2.4533-2.4533V347.6868a2.4532,2.4532,0,0,1,1.3482-2.19l1.8685-.9427A2.4535,2.4535,0,0,0,408.3405,342.3633Z" transform="translate(-31 -1.2626)"/><rect class="cls-10" x="407.7588" y="336.2663" width="9.4102" height="3.9582" rx="0.5068" ry="0.5068" transform="translate(793.9278 675.228) rotate(180)"/><path class="cls-9" d="M416.581,339.9351h0a.2393.2393,0,0,0,.2393-.2392v-2.9012a.2394.2394,0,0,0-.2393-.2393h0a.2393.2393,0,0,0-.2392.2393v2.9012A.2392.2392,0,0,0,416.581,339.9351Z" transform="translate(-31 -1.2626)"/><path class="cls-9" d="M415.7576,339.9351h0a.2392.2392,0,0,0,.2393-.2392v-2.9012a.2393.2393,0,0,0-.2393-.2393h0a.2393.2393,0,0,0-.2392.2393v2.9012A.2392.2392,0,0,0,415.7576,339.9351Z" transform="translate(-31 -1.2626)"/><path class="cls-9" d="M414.9342,339.9351h0a.2391.2391,0,0,0,.2392-.2392v-2.9012a.2392.2392,0,0,0-.2392-.2393h0a.2394.2394,0,0,0-.2393.2393v2.9012A.2393.2393,0,0,0,414.9342,339.9351Z" transform="translate(-31 -1.2626)"/><path class="cls-9" d="M414.1107,339.9351h0a.2392.2392,0,0,0,.2393-.2392v-2.9012a.2393.2393,0,0,0-.2393-.2393h0a.2393.2393,0,0,0-.2392.2393v2.9012A.2392.2392,0,0,0,414.1107,339.9351Z" transform="translate(-31 -1.2626)"/><path class="cls-9" d="M413.2873,339.9351h0a.2392.2392,0,0,0,.2393-.2392v-2.9012a.2393.2393,0,0,0-.2393-.2393h0a.2394.2394,0,0,0-.2393.2393v2.9012A.2393.2393,0,0,0,413.2873,339.9351Z" transform="translate(-31 -1.2626)"/><path class="cls-9" d="M412.4639,339.9351h0a.2392.2392,0,0,0,.2393-.2392v-2.9012a.2393.2393,0,0,0-.2393-.2393h0a.2394.2394,0,0,0-.2393.2393v2.9012A.2393.2393,0,0,0,412.4639,339.9351Z" transform="translate(-31 -1.2626)"/><path class="cls-9" d="M411.6405,339.9351h0a.2393.2393,0,0,0,.2393-.2392v-2.9012a.2394.2394,0,0,0-.2393-.2393h0a.2392.2392,0,0,0-.2392.2393v2.9012A.2391.2391,0,0,0,411.6405,339.9351Z" transform="translate(-31 -1.2626)"/><path class="cls-9" d="M410.8171,339.9351h0a.2392.2392,0,0,0,.2392-.2392v-2.9012a.2393.2393,0,0,0-.2392-.2393h0a.2393.2393,0,0,0-.2393.2393v2.9012A.2392.2392,0,0,0,410.8171,339.9351Z" transform="translate(-31 -1.2626)"/><path class="cls-9" d="M409.9937,339.9351h0a.2393.2393,0,0,0,.2392-.2392v-2.9012a.2394.2394,0,0,0-.2392-.2393h0a.2393.2393,0,0,0-.2393.2393v2.9012A.2392.2392,0,0,0,409.9937,339.9351Z" transform="translate(-31 -1.2626)"/><path class="cls-9" d="M409.17,339.9351h0a.2393.2393,0,0,0,.2393-.2392v-2.9012a.2394.2394,0,0,0-.2393-.2393h0a.2392.2392,0,0,0-.2392.2393v2.9012A.2391.2391,0,0,0,409.17,339.9351Z" transform="translate(-31 -1.2626)"/><path class="cls-9" d="M408.3468,339.9351h0a.2391.2391,0,0,0,.2392-.2392v-2.9012a.2392.2392,0,0,0-.2392-.2393h0a.2393.2393,0,0,0-.2393.2393v2.9012A.2392.2392,0,0,0,408.3468,339.9351Z" transform="translate(-31 -1.2626)"/><rect class="cls-9" x="377.1075" y="352.4207" width="8.7128" height="19.9972"/><path class="cls-3" d="M483.9131,185.5684l-1.1408-.0031.0031-1.1408a1.7127,1.7127,0,0,0-1.7082-1.7173l-.1927-.0006a1.7129,1.7129,0,0,0-1.7174,1.7082l-.003,1.1408-1.1408-.0031a1.7129,1.7129,0,0,0-1.7174,1.7082l-.0005.1926a1.7127,1.7127,0,0,0,1.7081,1.7174l1.1408.0031-.003,1.1408a1.7126,1.7126,0,0,0,1.7082,1.7173l.1926.0006a1.7127,1.7127,0,0,0,1.7174-1.7082l.0031-1.1408,1.1407.003a1.7128,1.7128,0,0,0,1.7175-1.7081l0-.1927A1.7126,1.7126,0,0,0,483.9131,185.5684Z" transform="translate(-31 -1.2626)"/><path class="cls-3" d="M210.56,229.2883H169.77a11.0445,11.0445,0,0,1-10.9864-9.9131l-3.0949-30.0526a11.0445,11.0445,0,0,1,10.9864-12.1759h46.98a11.0446,11.0446,0,0,1,10.9864,12.1759l-3.0949,30.0526A11.0445,11.0445,0,0,1,210.56,229.2883Z" transform="translate(-31 -1.2626)"/><path class="cls-3" d="M196.494,226.7142l-11.8954,14.6187a.9509.9509,0,0,0,1.25,1.4009l21.6892-13.8945Z" transform="translate(-31 -1.2626)"/><rect class="cls-10" x="136.4136" y="188.1849" width="45.5032" height="4.1919"/><rect class="cls-10" x="136.4136" y="199.8589" width="45.5032" height="4.1919"/><rect class="cls-10" x="175.899" y="210.2118" width="6.0178" height="4.1919"/><rect class="cls-10" x="136.4136" y="210.2118" width="35.159" height="4.1919"/><path class="cls-37" d="M163.5035,455.27l-7.2785-.2534-6.1383-24.6357a135.3235,135.3235,0,0,1-5.785-39.4613l.0225-9.643c.2258-16.1744,25.6389-14.6963,24.7241-.1575Z" transform="translate(-31 -1.2626)"/><path class="cls-38" d="M165.48,381.2648l-.0872-.3792c-2.8461,5.3028-7.0314,9.2784-12.6062,7.0109l-61.4824-27.499a14.2461,14.2461,0,0,1-8.87-12.7066h0a21.47,21.47,0,0,1,10.2117-19.0271h0a14.2462,14.2462,0,0,1,15.4921.3686l55.72,38.2354C168.8288,370.66,168.3256,375.9618,165.48,381.2648Z" transform="translate(-31 -1.2626)"/><path class="cls-20" d="M163.5959,450.9526c-.2255,6.9012,2.9357,15.7344,6.84,19.8006,1.8535,1.93,4.0413,3.5285,5.797,5.5483a1.6951,1.6951,0,0,1,.4258.7056,1.3631,1.3631,0,0,1-.7511,1.3479c-1.791,1.0883-4.0377-.2141-5.7138-1.4723l-4.7782-3.5868c-2.0259-1.5207-4.27-3.1141-6.8017-3.0288a22.3116,22.3116,0,0,1-2.9647.23,3.8419,3.8419,0,0,1-3.3212-3.2155c-.2278-.0319.05-3.7,1.1086-5.1984a38.3678,38.3678,0,0,0,2.6-5.2669c.6381-1.3186-1.6282-8.7856-1.5629-10.2489.0124-.2807,3.1827,6.1488,3.4492,6.06a.6722.6722,0,0,1,.3429.0074C160.2659,453.04,161.9925,449.6891,163.5959,450.9526Z" transform="translate(-31 -1.2626)"/><path class="cls-39" d="M102.779,322.9741l69.4431,41.8806s4.2955,1.0739,4.2955,8.233c0,7.9479,1.0738,73.3806,1.0738,73.3806l-27.92,2.1478-7.517-64.79L83.0915,358.4116s-6.168-4.2487-4.2955-16.108C82.0176,321.9,102.779,322.9741,102.779,322.9741Z" transform="translate(-31 -1.2626)"/><path class="cls-3" d="M153.5342,459.3108l13.2131-1.498s4.1983,4.8279,8.4846,6.3929,13.841,3.4067,14.6788,4.9654-.6608,6.424-.6608,6.424l-36.4723-.3436a20.6189,20.6189,0,0,1-1.4812-5.4358C150.5878,465.82,153.5342,459.3108,153.5342,459.3108Z" transform="translate(-31 -1.2626)"/><polygon class="cls-40" points="121.778 473.989 158.25 474.332 158.311 477.499 121.919 476.852 121.778 473.989"/><path class="cls-41" d="M171.9377,466.1545a4.5937,4.5937,0,0,1,4.5266-2.6266" transform="translate(-31 -1.2626)"/><path class="cls-41" d="M176.6324,467.9035a4.5937,4.5937,0,0,1,4.5266-2.6266" transform="translate(-31 -1.2626)"/><path class="cls-20" d="M164.4723,390.3971l-.0591-.3845c-3.2288,5.0789-7.6953,8.7355-13.0881,6.0638L92.0342,364.1251a14.2464,14.2464,0,0,1-7.91-13.3254h0a21.47,21.47,0,0,1,11.5849-18.2235h0a14.2465,14.2465,0,0,1,15.423,1.5083l52.7537,42.2343C168.5931,380.0681,167.701,385.3182,164.4723,390.3971Z" transform="translate(-31 -1.2626)"/><path class="cls-20" d="M110.8228,430.4078l-4.6857-6.1682,7.3646-13.1874a135.3293,135.3293,0,0,1,26.4877-29.8172l7.3967-6.1868c12.5274-10.2335,27.7463,10.1725,16.0275,18.8261Z" transform="translate(-31 -1.2626)"/><path class="cls-20" d="M113.7024,430.0178a28.9415,28.9415,0,0,0-5.5375,20.0215c.3406,3.3469,1.27,6.6233,1.4443,9.983a2.13,2.13,0,0,1-.1245,1.0284,1.7138,1.7138,0,0,1-1.7876.7533c-2.6163-.3091-3.8326-3.3386-4.5181-5.8823q-.9772-3.6259-1.9544-7.2517c-.8287-3.0747-1.8171-6.39-4.39-8.2662a28.0566,28.0566,0,0,1-3.1145-2.0674,4.83,4.83,0,0,1-.7989-5.756c-.2008-.2079,2.9147-3.625,5.1231-4.2894s4.5437-.9721,6.6139-1.9887a13.6485,13.6485,0,0,0,4.2677-3.4471c.23-.2683.55-.5729.8823-.4544a.8456.8456,0,0,1,.3339.2729A18.8873,18.8873,0,0,1,113.7024,430.0178Z" transform="translate(-31 -1.2626)"/><path class="cls-15" d="M112.0858,331.565l55.8409,45.1022s4.2954,2.5058,2.1477,10.3808-51.5454,51.9033-51.5454,51.9033l-19.33-21.4773,29.3524-31.8578L94.904,367.0025s-12.9,2.424-20.4034-6.4432c-11.8125-13.96,5.3693-31.142,5.3693-32.2159S112.0858,331.565,112.0858,331.565Z" transform="translate(-31 -1.2626)"/><path class="cls-3" d="M101.75,426.4676l8.1565,10.5025s-1.937,6.0977-1.0422,10.5721,4.2954,13.5915,3.4006,15.1182-5.829,2.78-5.829,2.78L87.745,434.1189a20.6255,20.6255,0,0,1,3.87-4.0941C94.658,427.34,101.75,426.4676,101.75,426.4676Z" transform="translate(-31 -1.2626)"/><polygon class="cls-40" points="56.745 432.856 75.436 464.177 72.763 465.878 54.373 434.467 56.745 432.856"/><path class="cls-41" d="M105.4855,445.7439a4.5937,4.5937,0,0,1,4.5988,2.4979" transform="translate(-31 -1.2626)"/><path class="cls-41" d="M106.4358,450.6629a4.5933,4.5933,0,0,1,4.5987,2.4979" transform="translate(-31 -1.2626)"/><path class="cls-42" d="M140.0934,233.7418c.2973,2.1216.4076,4.5235-.9916,6.1459s-4.7881,1.2493-4.9652-.8857a35.5487,35.5487,0,0,1-35.2543-.5327c-2.5356-1.5405-5.1523-4.1532-4.3847-7.0191.5282-1.9718,2.4983-3.1889,4.4127-3.8971s3.9972-1.1444,5.5861-2.426c2.1254-1.7143,2.9117-4.5511,4.3608-6.8655,4.0812-6.5185,16.6389-10.3052,23.6217-6.464C138.3161,215.0085,139.262,227.8068,140.0934,233.7418Z" transform="translate(-31 -1.2626)"/><path class="cls-43" d="M128.78,282.5076l-4.1521-11.7941c-1.796-3.2312-4.7616-10.3084-8.19-14.0619a30.4526,30.4526,0,0,1,2.1813-5.6885L124.773,238.85,111.07,231.8884l-6.1557,12.1171a30.4911,30.4911,0,0,1-8.4764,10.2591c-1.4345.6712-6.2012,4.6766-6.2012,4.6766-3.3577,3.6247-5.745,8.3674-6.1245,12.6431l.99,33.7832a91.938,91.938,0,0,1-3.49,19.6374l-1.9493,6.6539.1732.0205-.1282.4374,34.2341-7.8,2.5768-3.83,5.2131-15.7423,5.6142-7.0955C131.47,293.317,131.6863,287.7352,128.78,282.5076Z" transform="translate(-31 -1.2626)"/><path class="cls-27" d="M116.61,255.4727a13.0877,13.0877,0,0,1,3.59-6.0146c-1.6747,1.5921-10.7661-9.7831-11.7428-10.73C108.54,244.7958,112.4,251.3223,116.61,255.4727Z" transform="translate(-31 -1.2626)"/><path class="cls-20" d="M133.3257,230.4235c.3744,11.2954-4.4209,20.6212-10.71,20.83s-15.41-8.6561-15.7848-19.9515c-.5851-17.6633,8.14-20.7445,14.4292-20.953S132.9514,219.128,133.3257,230.4235Z" transform="translate(-31 -1.2626)"/><path class="cls-44" d="M118.376,239.683a1.7618,1.7618,0,0,1-1.6607-.1846c-1.3792-.7616-4.0357-4.8826-.8482-4.8628C117.7268,234.6472,120.5646,238.4632,118.376,239.683Z" transform="translate(-31 -1.2626)"/><path class="cls-44" d="M130.2789,240.7977a5.6419,5.6419,0,0,0-.5509,2.7011.9511.9511,0,0,0,.1631.5709.6994.6994,0,0,0,.9324.0311,1.8,1.8,0,0,0,.5333-.8656c.242-.6779.897-2.3236.4691-3.0242C131.2856,239.3264,130.5926,240.1467,130.2789,240.7977Z" transform="translate(-31 -1.2626)"/><path class="cls-4" d="M121.3317,241.5047l5.9084,2.7844s-2.1359,2.5933-4.1086,2.0059C120.352,245.4675,121.3317,241.5047,121.3317,241.5047Z" transform="translate(-31 -1.2626)"/><path class="cls-45" d="M127.76,233.0991a9.4994,9.4994,0,0,0-.64,4.7281,4.7629,4.7629,0,0,1,.2727,1.9956c-.1507.6611-1.044,1.1749-1.5118.6841" transform="translate(-31 -1.2626)"/><path class="cls-4" d="M121.7926,231.3437c-.29.9376-1.0259,1.9366-1.0276,2.9179-.0012.6889.2138,1.6625,1.5485,1.565a1.5463,1.5463,0,0,0,1.0252-.7224,6.0439,6.0439,0,0,0,1.2792-2.3219,2.0668,2.0668,0,0,0-.93-2.2981c-.8056-.3817-1.45.021-1.8956.86" transform="translate(-31 -1.2626)"/><path class="cls-29" d="M124.1775,233.0553a.7525.7525,0,0,0-.5638-.6276.7286.7286,0,0,0-.4942.1208,2.0409,2.0409,0,0,0-.7223,1.3475,2.3667,2.3667,0,0,0-.0693,1.0946.4571.4571,0,0,0,.168.2813c.1872.1232.4328-.0126.6078-.1525A2.2979,2.2979,0,0,0,124.1775,233.0553Z" transform="translate(-31 -1.2626)"/><path class="cls-4" d="M123.85,233.49a.3434.3434,0,0,0,.14.0224.4024.4024,0,0,0,.1892-.0728.5835.5835,0,0,0,.2226-.2506.3744.3744,0,0,0-.0094-.3281.49.49,0,0,0-.693-.0988A.4421.4421,0,0,0,123.85,233.49Z" transform="translate(-31 -1.2626)"/><path class="cls-45" d="M124.88,228.0627c-.1659-.5584-.8115-.8057-1.3845-.9107a7.9516,7.9516,0,0,0-3.0735.0426" transform="translate(-31 -1.2626)"/><path class="cls-4" d="M129.0545,236.0134a1.6862,1.6862,0,0,0,.0867.7063,1.08,1.08,0,0,0,1.6463.4728,1.8192,1.8192,0,0,0,.4664-.5731,5.6842,5.6842,0,0,0,.6331-1.6359c.1892-.8715-.0645-2.2559-1.2439-1.73A3.2705,3.2705,0,0,0,129.0545,236.0134Z" transform="translate(-31 -1.2626)"/><path class="cls-29" d="M129.89,236.5071a.605.605,0,0,0,.2033.557.4752.4752,0,0,0,.25.0564,1.1826,1.1826,0,0,0,.8491-.4342c.3848-.44,1.18-2.1522.0711-2.2179C130.3148,234.4123,129.9079,235.7915,129.89,236.5071Z" transform="translate(-31 -1.2626)"/><path class="cls-4" d="M130.7079,235.2075a.3447.3447,0,0,0,.14.0223.4032.4032,0,0,0,.1892-.0728.5835.5835,0,0,0,.2226-.2506.3751.3751,0,0,0-.0094-.3281.49.49,0,0,0-.693-.0988A.4422.4422,0,0,0,130.7079,235.2075Z" transform="translate(-31 -1.2626)"/><path class="cls-45" d="M130.7377,229.4947c-.1775-.0586.0015-.3237.1811-.3758a4.4975,4.4975,0,0,1,3.1162.6641" transform="translate(-31 -1.2626)"/><path class="cls-23" d="M136.8266,222.9309c-3.4731,3.006-9.4543,2.0025-12.1152-1.7416-.5182-.7294-1.018-1.605-1.8869-1.8184-1.4834-.3643-2.575,1.4914-2.5768,3.0188s.4964,3.1513-.1734,4.524c-.7813,1.6011-2.9179,2.1358-4.6355,1.6621a11.6382,11.6382,0,0,1-4.4361-2.89,9.7353,9.7353,0,0,1-14.0272,8.542c-2.6854-1.3195-4.7621-4.219-4.3548-7.1833s3.9236-5.3016,6.5866-3.9374a7.3059,7.3059,0,0,1,9.0352-11.1632c.5271-1.61.34-3.3751.7688-5.014.85-3.2454,4.1455-5.4967,7.4939-5.7039a12.5486,12.5486,0,0,1,9.085,3.6456C129.7514,208.7551,146.1931,214.824,136.8266,222.9309Z" transform="translate(-31 -1.2626)"/><polygon class="cls-46" points="92.288 328.145 124.361 297.621 115.941 288.67 69.395 308.168 92.288 328.145"/><path class="cls-23" d="M141.7317,268.775l34.1219,1.7371a3.92,3.92,0,0,1,3.5563,5.0393l-10.2286,34.173a3.92,3.92,0,0,1-3.9223,2.7926l-34.157-1.4534a3.92,3.92,0,0,1-3.59-5.0359l10.2637-34.4566A3.92,3.92,0,0,1,141.7317,268.775Z" transform="translate(-31 -1.2626)"/><path class="cls-47" d="M174.711,274.1736a3.3564,3.3564,0,0,0-1.5091-.4434l-29.4306-1.4983a3.3815,3.3815,0,0,0-3.4125,2.4116l-8.1468,27.35C141.3254,296.306,162.6587,282.1835,174.711,274.1736Z" transform="translate(-31 -1.2626)"/><path class="cls-3" d="M156.7037,290.4293c-.5057,1.3687-1.5169,2.2562-2.2587,1.9821s-.9331-1.6058-.4273-2.9746,1.5169-2.2562,2.2587-1.9821S157.21,289.0605,156.7037,290.4293Z" transform="translate(-31 -1.2626)"/><line class="cls-48" x1="105.0596" y1="287.8142" x2="101.212" y2="300.731"/><path class="cls-48" d="M173.2019,273.73l-29.4306-1.4983a3.3815,3.3815,0,0,0-3.4125,2.4116l-2.401,8.06" transform="translate(-31 -1.2626)"/><path class="cls-20" d="M171.1648,283.979a5.3562,5.3562,0,0,0-2.8794-.9027.7536.7536,0,0,0-.6106,1.1248,18.175,18.175,0,0,0,6.5615,6.4065,11.2645,11.2645,0,0,0-6.7972-2.0175,2.3784,2.3784,0,0,0-1.7164.58,1.7476,1.7476,0,0,0-.1342,1.9449,4.2685,4.2685,0,0,0,1.4528,1.4543,16.826,16.826,0,0,0,5.47,2.46l-3.7032-.2548c-.4336-.03-.952-.0205-1.1932.341-.4077.6116.4194,1.2879,1.1018,1.561,1.0411.4165,2.4917.9564,3.689,1.42a1.2337,1.2337,0,0,0,1.475-.47c1.2624-1.8806,3.0092-6.31,2.84-8.4439C176.5272,286.7531,173.0394,285.0753,171.1648,283.979Z" transform="translate(-31 -1.2626)"/><path class="cls-40" d="M122.4253,262.4518s3.5769,11.38,5.6211,16.7784,3.6961,8.06,3.5208,11.8454-.841,3.2566-2.26,5.0875-6.8794,9.0924-6.8794,9.0924l-6.5026,14.4438-7.1817-8.04,16.6671-22.353Z" transform="translate(-31 -1.2626)"/><path class="cls-40" d="M122.8244,287.5366c1.1817,9.459,1.4313,10.4944-2.1477,19.3295-4.8967,12.0885-6.2369,10.2572-12.8864,21.4773,11.0935,8.5518,18.8546,17.8888,25.7727,30.0682-9.7668,7.7021-29.9295,24.61-39.6964,32.3126-13.1146-11.2565-27.4-25.0944-26.4706-42.3524.3736-6.9375,3.2594-13.4474,5.6342-19.9764,4.7108-12.9513,4.943-20.6587,5.7658-34.4156.4714-7.88.5153-19.916,4.2955-26.8466,6.4432-11.8125,18.3109-19.1642,19.33-16.1079C106.7165,263.9116,121.7521,278.9523,122.8244,287.5366Z" transform="translate(-31 -1.2626)"/><path class="cls-20" d="M76.6016,328.3427h0a4.6571,4.6571,0,0,1-2.6123-4.253l.5-10.75A109.3855,109.3855,0,0,1,84.4539,279.22l5.039-9.9714c5.7416-11.5,27.2043,1.0633,20.8133,12.3693l-27.553,45.307A4.6535,4.6535,0,0,1,76.6016,328.3427Z" transform="translate(-31 -1.2626)"/><path class="cls-20" d="M134.1205,317.3191h0a3.1825,3.1825,0,0,1-2.3212,2.7056l-8.7838,3.2945a148.19,148.19,0,0,1-31.3178,6.2753l-7.7035.697c-12.928,1.06-12.6433-13.8508-.9973-14.3886l47.4663-1.1862C132.5183,314.6653,134.131,315.8129,134.1205,317.3191Z" transform="translate(-31 -1.2626)"/><path class="cls-20" d="M130.92,310.2429a19.3726,19.3726,0,0,1,14.2119-6.6848c1.2241,1.47-5.0809,2.8971-7.275,4.8718a1.0849,1.0849,0,0,0-.4133.635c-.09.7863,1.1394.861,1.8693.5552,6.0038-2.5156,10.97-7.767,17.4432-8.4493,1.8335.6854-2.6362,3.6943-4.6877,4.5785-.2355,2-7.2735,9.1753-9.8576,11.1694a21.6967,21.6967,0,0,1-3.0534,2.0739c-3.1689,1.6775-6.9017,1.8009-10.4863,1.8873a1.3633,1.3633,0,0,1-1.5479-.8657c-.52-.8793-1.7894-2.3206-1.9645-3.32-.2566-1.4651-.0512-.868.9836-1.7323A42.1508,42.1508,0,0,0,130.92,310.2429Z" transform="translate(-31 -1.2626)"/><path class="cls-3" d="M84.3038,259.0971h5.5178a11.453,11.453,0,0,1,11.453,11.453v63.9317a0,0,0,0,1,0,0H91.5213a18.67,18.67,0,0,1-18.67-18.67V270.55A11.453,11.453,0,0,1,84.3038,259.0971Z" transform="translate(115.2554 -8.0521) rotate(27.3822)"/><polygon class="cls-3" points="52.091 335.672 95.046 324.933 92.135 312.994 42.027 307.003 52.091 335.672"/><path class="cls-7" d="M116.4063,285.691c1.8481,4.4759,3.5345,9.1181,5.0132,13.797a16.8263,16.8263,0,0,1,.9278,4.2114,5.8987,5.8987,0,0,1-1.0071,3.8819,5.5194,5.5194,0,0,1-2.7222,1.6909,14.821,14.821,0,0,1-2.7374.618,1.5312,1.5312,0,0,0-1.2776-1.2094l-.8317-.0788a1.8363,1.8363,0,0,0-.3407,3.6l.8317.0787a1.6252,1.6252,0,0,0,1.63-1.3925,15.5194,15.5194,0,0,0,2.9238-.6564,6.2937,6.2937,0,0,0,3.1284-1.9851,7.0414,7.0414,0,0,0,1.2384-4.6413,18.0069,18.0069,0,0,0-.979-4.4947c-1.4873-4.7081-3.1844-9.3788-5.0441-13.8829a7.5278,7.5278,0,0,0-1.4929-2.5742,5.8836,5.8836,0,0,0-3.5035-1.3584l-.1275.9885a5.2508,5.2508,0,0,1,3.0838,1.1443A6.7986,6.7986,0,0,1,116.4063,285.691Z" transform="translate(-31 -1.2626)"/><path class="cls-7" d="M97.431,305.9257a6.2941,6.2941,0,0,0,2.7,2.5368,15.5306,15.5306,0,0,0,2.7486,1.1934,1.6257,1.6257,0,0,0,1.34,1.6738l.8317.0787a1.8364,1.8364,0,0,0,.3409-3.6l-.8317-.0787a1.5309,1.5309,0,0,0-1.4818.9482,14.8139,14.8139,0,0,1-2.5728-1.1208,5.52,5.52,0,0,1-2.3567-2.1717,5.8989,5.8989,0,0,1-.2606-4.0018,16.83,16.83,0,0,1,1.7016-3.9626c2.3305-4.3182,4.8581-8.5615,7.5133-12.6111a6.8,6.8,0,0,1,1.6885-1.9817,5.2506,5.2506,0,0,1,3.2439-.5453l.06-.995a5.8839,5.8839,0,0,0-3.6961.677,7.5271,7.5271,0,0,0-1.95,2.2482c-2.6719,4.0751-5.2155,8.3444-7.56,12.69a18.0115,18.0115,0,0,0-1.8051,4.2312A7.0412,7.0412,0,0,0,97.431,305.9257Z" transform="translate(-31 -1.2626)"/><path class="cls-49" d="M112.5035,281.6519c-1.1871-4.2883-5.0148-7.2238-7.6172-10.833A21.38,21.38,0,0,1,102.24,251.21" transform="translate(-31 -1.2626)"/><path class="cls-4" d="M125.6683,296.8413a69.4558,69.4558,0,0,0-.2189-23.4439,3.9237,3.9237,0,0,0-2.07-.7509l1.3007-1.5487c.69-.8219-2.0951-7.0132-2.5406-8.0195-.9394-2.1216-3.5025-5.7918-5.758-6.6837,1.0739,3.2216,2.9291,7.5307,3.4882,9.2294q1.6591,5.0418,2.8632,10.2186A118.3062,118.3062,0,0,1,125.6683,296.8413Z" transform="translate(-31 -1.2626)"/><path class="cls-4" d="M103.4949,246.73a83.7288,83.7288,0,0,0,9.9855,20.6475c6.6524,9.609,8.87,12.5656,10.3482,18.4788a119.8113,119.8113,0,0,1,2.2174,15.5222s-7.3915-20.6963-12.5656-25.1312a72.9708,72.9708,0,0,0-8.87-6.6524l1.1088-9.9785H97.5886a28.5348,28.5348,0,0,1,1.4784-8.1307C100.5453,247.0506,103.4949,246.73,103.4949,246.73Z" transform="translate(-31 -1.2626)"/><path class="cls-45" d="M126.046,301.3783s-7.3915-20.6963-12.5656-25.1312a72.9708,72.9708,0,0,0-8.87-6.6524l1.1088-9.9785H97.5886a28.5348,28.5348,0,0,1,1.4784-8.1307" transform="translate(-31 -1.2626)"/><path class="cls-18" d="M132.212,301.9936" transform="translate(-31 -1.2626)"/><polygon class="cls-50" points="151.724 148.395 78.077 148.395 95.454 88.506 136.884 88.506 151.724 148.395"/><line class="cls-51" x1="116.9708" x2="116.9708" y2="53.5185"/><circle class="cls-3" cx="116.3223" cy="92.9825" r="9.3645"/><path class="cls-5" d="M172.39,92.1293H123.5516V78.45a24.4191,24.4191,0,0,1,24.4192-24.4191h0A24.419,24.419,0,0,1,172.39,78.45Z" transform="translate(-31 -1.2626)"/><path class="cls-1" d="M147.9708,58.0008h0A19.33,19.33,0,0,1,167.3,77.33V88.1589H128.6412" transform="translate(-31 -1.2626)"/></svg>