<svg id="svg" version="1.1" xmlns="http://www.w3.org/2000/svg" xmlns:xlink="http://www.w3.org/1999/xlink" width="400" height="528.8888888888889" viewBox="0, 0, 400,528.8888888888889"><g id="svgg"><path id="path0" d="M149.428 19.669 C 149.444 24.258,150.698 29.072,152.387 31.030 C 152.938 31.668,153.130 31.746,148.269 29.359 C 146.242 28.363,144.526 27.548,144.456 27.548 C 144.386 27.548,143.912 27.365,143.404 27.141 C 142.485 26.737,140.842 26.112,138.733 25.364 C 125.292 20.596,111.392 21.011,104.969 26.372 C 104.702 26.595,104.276 26.938,104.022 27.135 C 102.264 28.496,99.349 31.760,97.944 33.939 C 97.592 34.485,97.244 34.981,97.170 35.041 C 95.688 36.256,90.839 47.479,90.239 51.080 C 90.164 51.532,89.921 52.793,89.699 53.884 C 89.185 56.410,88.960 61.713,89.223 65.124 C 90.117 76.741,96.978 85.929,106.667 88.485 C 107.455 88.692,108.496 88.966,108.981 89.092 C 109.466 89.219,109.891 89.344,109.926 89.371 C 109.991 89.421,109.760 90.033,109.095 91.570 C 106.278 98.082,104.101 106.167,103.634 111.846 C 103.009 119.455,103.645 125.493,105.557 130.086 C 106.857 133.209,106.721 133.188,109.771 130.733 C 118.222 123.928,126.741 110.803,130.224 99.217 C 130.491 98.332,130.806 97.352,130.924 97.040 L 131.140 96.472 132.402 97.674 C 141.503 106.342,155.418 107.170,167.052 99.734 C 171.214 97.074,177.062 91.551,179.304 88.163 C 180.025 87.074,180.097 87.069,180.577 88.076 C 184.103 95.471,195.006 99.364,206.782 97.432 C 208.330 97.178,209.722 96.970,209.876 96.970 C 210.042 96.970,210.308 97.619,210.530 98.567 C 212.079 105.178,217.243 108.665,227.273 109.873 L 228.320 109.999 228.320 111.175 C 228.320 122.885,233.838 133.461,242.094 137.572 C 246.127 139.580,253.431 140.635,255.610 139.523 C 259.962 137.303,264.580 126.479,267.420 111.846 C 267.726 110.270,268.071 108.683,268.188 108.320 C 268.498 107.351,269.331 101.691,269.544 99.099 C 269.645 97.867,269.856 95.868,270.013 94.656 C 270.407 91.606,270.409 75.500,270.015 73.058 C 269.859 72.088,269.640 70.522,269.530 69.577 C 269.297 67.590,268.575 64.348,267.969 62.567 C 267.737 61.888,267.548 61.209,267.548 61.058 C 267.548 60.567,265.634 56.457,265.207 56.029 C 265.040 55.862,264.904 55.630,264.904 55.512 C 264.904 54.380,259.954 50.884,257.190 50.064 C 254.346 49.220,249.007 49.317,246.073 50.265 C 245.352 50.498,244.629 50.689,244.464 50.689 C 244.300 50.689,243.756 50.887,243.254 51.129 C 242.752 51.372,242.257 51.570,242.153 51.570 C 242.050 51.570,241.158 51.966,240.172 52.449 C 238.183 53.424,238.066 53.429,238.519 52.527 C 242.007 45.590,241.196 35.289,236.804 30.752 C 231.597 25.371,229.316 25.035,197.686 24.994 C 183.013 24.975,173.704 24.878,172.452 24.732 C 171.361 24.604,169.427 24.384,168.154 24.242 C 166.882 24.101,164.948 23.794,163.857 23.561 C 162.766 23.328,161.712 23.138,161.515 23.139 C 159.269 23.149,149.862 18.884,149.862 17.856 C 149.862 17.732,149.763 17.631,149.642 17.631 C 149.510 17.631,149.424 18.453,149.428 19.669 M178.953 117.631 C 177.937 118.139,177.297 119.326,177.488 120.346 C 177.841 122.224,183.821 129.045,187.466 131.726 C 194.777 137.105,204.738 138.532,204.738 134.200 C 204.738 132.189,203.869 131.569,200.882 131.452 C 194.920 131.219,188.854 127.320,183.627 120.361 C 181.301 117.264,180.557 116.830,178.953 117.631 M146.733 118.293 C 146.405 118.505,145.553 119.476,144.838 120.452 C 140.226 126.747,134.677 130.375,129.353 130.576 C 125.755 130.712,124.286 132.925,126.396 135.035 L 127.171 135.810 129.867 135.705 C 136.646 135.440,143.200 131.363,148.794 123.931 C 150.711 121.385,150.924 120.791,150.397 119.472 C 149.807 117.998,148.060 117.436,146.733 118.293 M182.179 139.386 C 179.018 140.513,178.193 144.497,180.641 146.820 C 182.476 148.562,185.183 148.488,187.028 146.647 C 190.378 143.301,186.690 137.778,182.179 139.386 M140.266 140.580 C 137.835 141.684,136.987 144.855,138.537 147.048 C 141.222 150.849,147.307 148.510,146.689 143.914 C 146.301 141.032,143.020 139.329,140.266 140.580 " stroke="none" fill="#262e3e" fill-rule="evenodd"></path><path id="path1" d="M252.625 209.486 C 251.750 209.912,250.957 210.394,250.862 210.557 C 249.910 212.189,238.370 215.315,226.667 217.110 C 218.670 218.336,207.427 217.278,204.606 215.034 C 204.268 214.765,203.545 214.337,202.999 214.083 L 202.007 213.620 200.673 214.051 C 199.550 214.413,196.157 215.346,192.791 216.219 C 189.820 216.990,184.733 224.624,182.717 231.338 C 181.543 235.248,180.591 244.848,181.377 244.848 C 181.503 244.848,181.598 245.505,181.598 246.378 L 181.598 247.907 182.812 248.747 C 183.480 249.209,184.894 250.203,185.953 250.956 C 199.558 260.628,216.751 264.718,232.663 262.067 L 234.912 261.692 235.901 264.455 C 238.245 271.005,241.419 281.038,242.979 286.832 C 243.306 288.044,243.706 289.482,243.869 290.028 C 244.269 291.367,246.671 301.204,247.368 304.353 C 249.156 312.438,250.599 320.741,252.001 331.019 C 254.033 345.919,254.569 373.373,253.225 393.719 C 253.113 395.416,252.917 398.540,252.789 400.661 C 251.811 416.856,249.087 436.061,246.302 446.391 C 246.008 447.482,245.734 448.510,245.694 448.674 C 245.523 449.368,253.179 451.441,260.055 452.563 C 267.221 453.732,277.544 453.221,282.567 451.449 C 283.064 451.273,283.573 451.129,283.698 451.129 C 284.050 451.129,283.726 466.214,283.200 474.270 C 282.647 482.749,281.504 494.525,280.883 498.141 C 280.789 498.690,280.830 498.744,281.242 498.613 C 281.498 498.532,281.819 498.449,281.956 498.429 C 283.272 498.234,283.582 497.855,283.842 496.127 C 285.233 486.895,286.487 467.635,286.497 455.360 L 286.501 450.003 287.689 449.460 C 288.500 449.088,288.909 448.761,288.981 448.425 C 289.039 448.155,289.437 446.744,289.867 445.289 C 291.327 440.341,292.903 433.798,293.980 428.209 C 294.873 423.578,295.104 422.310,295.643 419.063 C 300.619 389.078,300.620 355.740,295.645 326.061 C 295.352 324.314,295.142 323.180,294.217 318.347 C 293.452 314.353,291.176 304.559,290.223 301.157 C 289.985 300.309,289.581 298.871,289.326 297.961 C 287.751 292.356,284.962 283.845,282.970 278.567 C 282.352 276.931,281.762 275.344,281.658 275.041 C 281.555 274.738,281.224 273.895,280.925 273.168 C 280.625 272.441,280.017 270.953,279.574 269.862 C 279.132 268.771,278.636 267.581,278.473 267.218 C 278.310 266.854,277.661 265.366,277.031 263.912 C 276.400 262.457,274.243 257.956,272.237 253.910 L 268.589 246.553 269.446 245.808 C 269.917 245.398,270.601 244.924,270.964 244.753 C 271.328 244.582,272.065 244.037,272.602 243.541 L 273.578 242.640 273.594 238.951 C 273.618 233.015,272.969 229.919,270.670 225.014 C 270.084 223.762,270.026 223.665,268.428 221.267 C 266.795 218.817,262.843 214.435,262.267 214.435 C 262.141 214.435,262.039 214.345,262.039 214.234 C 262.039 213.995,258.861 211.570,258.547 211.570 C 258.427 211.570,258.296 211.490,258.255 211.392 C 258.215 211.294,257.686 210.880,257.080 210.472 C 256.474 210.064,255.698 209.500,255.355 209.218 C 254.558 208.562,254.516 208.566,252.625 209.486 M153.860 341.347 C 153.420 341.787,153.178 342.720,151.828 349.201 C 149.330 361.191,147.098 375.724,145.585 389.862 C 141.489 428.140,142.248 464.833,147.785 496.198 C 148.884 502.424,150.337 509.446,150.564 509.634 C 150.602 509.665,151.204 509.755,151.901 509.834 C 153.350 509.997,153.304 510.086,152.851 507.989 C 150.486 497.050,149.266 489.816,148.003 479.229 C 143.184 438.860,146.067 387.112,155.495 344.737 C 156.079 342.112,156.034 341.629,155.161 341.162 C 154.567 340.844,154.328 340.878,153.860 341.347 " stroke="none" fill="#63bbea" fill-rule="evenodd"></path><path id="path2" d="M319.115 59.694 C 317.616 60.494,318.160 62.100,320.366 63.394 C 321.017 63.775,321.306 64.076,321.225 64.288 C 321.158 64.464,320.846 65.369,320.534 66.299 C 320.221 67.228,319.780 68.485,319.553 69.091 C 319.327 69.697,319.084 70.470,319.013 70.808 C 318.941 71.155,318.786 71.361,318.656 71.282 C 316.665 70.051,307.301 70.816,304.856 72.409 C 304.588 72.584,304.269 72.727,304.148 72.727 C 304.026 72.727,303.453 73.029,302.873 73.398 L 301.818 74.069 301.157 73.336 C 298.556 70.452,298.586 70.496,298.939 69.997 C 301.503 66.381,300.370 64.294,296.821 66.095 C 295.457 66.786,295.296 66.905,293.958 68.209 C 290.695 71.391,292.386 74.574,296.116 72.270 L 296.926 71.769 297.587 72.524 C 297.951 72.939,298.673 73.758,299.191 74.345 L 300.135 75.412 299.381 76.074 C 295.849 79.175,293.586 84.294,293.358 89.697 L 293.223 92.893 292.562 92.955 C 292.198 92.990,291.008 93.209,289.917 93.442 C 286.608 94.151,286.487 94.141,286.137 93.133 C 284.354 87.984,280.957 90.801,282.176 96.419 C 283.246 101.355,286.942 101.962,286.942 97.201 L 286.942 96.120 288.209 95.872 C 288.906 95.736,290.369 95.441,291.460 95.216 C 293.800 94.734,293.658 94.683,294.004 96.143 C 294.320 97.477,296.027 101.110,296.655 101.784 C 296.888 102.035,297.080 102.342,297.080 102.465 C 297.080 102.765,300.972 106.667,301.272 106.667 C 301.401 106.667,301.713 106.860,301.966 107.095 C 302.219 107.331,303.147 107.880,304.029 108.316 C 305.831 109.206,305.765 108.939,304.813 111.521 L 304.282 112.959 303.017 112.750 C 297.441 111.828,299.140 116.545,304.890 117.952 C 309.508 119.082,311.247 115.903,307.027 114.046 C 306.483 113.807,306.317 113.617,306.406 113.334 C 306.564 112.832,307.234 110.879,307.459 110.265 C 307.629 109.799,307.667 109.794,308.803 110.097 C 311.024 110.688,316.249 110.525,318.702 109.789 C 321.407 108.977,325.108 107.054,325.648 106.180 C 325.784 105.960,327.493 107.652,327.493 108.006 C 327.493 108.106,327.631 108.267,327.799 108.364 C 329.069 109.096,330.388 111.474,329.797 111.965 C 329.171 112.483,328.346 114.519,328.504 115.151 C 328.934 116.862,332.326 116.094,334.687 113.752 C 338.130 110.336,336.999 107.109,333.119 109.277 L 332.023 109.890 330.396 108.003 C 329.501 106.965,328.469 105.788,328.102 105.387 L 327.434 104.659 327.983 104.065 C 331.603 100.146,333.816 93.460,333.074 88.690 L 332.866 87.353 335.193 86.881 C 336.473 86.621,337.917 86.348,338.402 86.275 C 338.887 86.201,339.492 86.091,339.746 86.030 C 340.135 85.937,340.325 86.154,340.938 87.385 C 343.457 92.451,346.521 87.213,344.099 81.979 C 342.487 78.493,340.332 78.533,340.106 82.053 L 339.997 83.745 339.200 83.953 C 338.761 84.067,337.758 84.277,336.970 84.420 C 336.182 84.562,334.893 84.812,334.106 84.974 C 332.506 85.305,332.503 85.303,332.119 84.077 C 330.705 79.560,326.767 75.002,322.372 72.796 C 320.601 71.907,320.638 72.199,321.868 68.871 C 322.315 67.658,322.761 66.369,322.858 66.006 C 323.201 64.722,323.329 64.551,323.828 64.711 C 325.461 65.238,327.735 64.665,328.059 63.645 C 328.245 63.058,327.186 61.553,326.228 61.044 C 325.836 60.835,325.371 60.545,325.195 60.399 C 324.148 59.530,320.265 59.080,319.115 59.694 M323.973 89.411 C 326.283 91.003,324.778 94.597,322.113 93.853 C 320.033 93.273,319.602 90.557,321.415 89.451 C 322.260 88.936,323.261 88.920,323.973 89.411 M304.089 94.270 C 304.780 94.868,304.864 95.498,304.340 96.164 C 303.472 97.268,301.928 96.712,301.928 95.295 C 301.928 94.085,303.185 93.489,304.089 94.270 M131.350 96.818 C 131.350 96.856,131.672 97.179,132.066 97.535 L 132.782 98.182 132.135 97.466 C 131.532 96.798,131.350 96.648,131.350 96.818 M198.072 98.007 C 198.344 98.059,198.791 98.059,199.063 98.007 C 199.336 97.954,199.113 97.911,198.567 97.911 C 198.022 97.911,197.799 97.954,198.072 98.007 M201.711 98.009 C 202.046 98.060,202.542 98.059,202.813 98.006 C 203.084 97.954,202.810 97.913,202.204 97.914 C 201.598 97.916,201.376 97.959,201.711 98.009 M213.113 104.091 C 213.113 104.129,213.435 104.451,213.829 104.807 L 214.545 105.455 213.898 104.738 C 213.295 104.071,213.113 103.921,213.113 104.091 M103.201 117.906 C 103.201 118.452,103.243 118.675,103.296 118.402 C 103.349 118.129,103.349 117.683,103.296 117.410 C 103.243 117.138,103.201 117.361,103.201 117.906 M113.603 127.218 L 112.066 128.815 113.664 127.279 C 115.148 125.851,115.362 125.620,115.201 125.620 C 115.167 125.620,114.448 126.339,113.603 127.218 M128.873 130.624 C 129.147 130.677,129.544 130.675,129.755 130.620 C 129.965 130.565,129.741 130.521,129.256 130.524 C 128.771 130.526,128.599 130.571,128.873 130.624 M200.496 131.505 C 200.769 131.558,201.215 131.558,201.488 131.505 C 201.760 131.453,201.537 131.410,200.992 131.410 C 200.446 131.410,200.223 131.453,200.496 131.505 M125.451 133.113 C 125.451 133.537,125.496 133.711,125.551 133.499 C 125.607 133.287,125.607 132.939,125.551 132.727 C 125.496 132.515,125.451 132.689,125.451 133.113 M236.364 133.554 C 236.837 134.039,237.274 134.435,237.335 134.435 C 237.395 134.435,237.057 134.039,236.584 133.554 C 236.111 133.069,235.674 132.672,235.613 132.672 C 235.552 132.672,235.890 133.069,236.364 133.554 M128.654 135.917 C 129.050 135.966,129.645 135.965,129.976 135.915 C 130.308 135.865,129.983 135.825,129.256 135.826 C 128.529 135.827,128.258 135.868,128.654 135.917 M199.837 136.795 C 200.111 136.848,200.508 136.846,200.719 136.791 C 200.930 136.735,200.705 136.692,200.220 136.695 C 199.736 136.697,199.563 136.742,199.837 136.795 M201.488 136.791 C 201.700 136.846,202.047 136.846,202.259 136.791 C 202.471 136.736,202.298 136.690,201.873 136.690 C 201.449 136.690,201.275 136.736,201.488 136.791 M252.511 140.105 C 252.907 140.154,253.502 140.153,253.833 140.102 C 254.164 140.052,253.840 140.012,253.113 140.013 C 252.386 140.014,252.115 140.056,252.511 140.105 M341.135 185.407 C 339.465 186.528,340.627 189.221,343.255 190.319 C 344.253 190.736,344.271 190.802,343.773 192.182 C 343.534 192.846,343.250 193.686,343.141 194.050 C 343.032 194.413,342.582 195.702,342.142 196.915 C 341.702 198.127,341.246 199.441,341.129 199.835 C 340.879 200.676,341.036 200.656,338.953 200.110 C 336.324 199.421,330.787 199.482,327.743 200.234 C 324.282 201.089,320.745 202.614,319.213 203.913 C 318.766 204.292,318.732 204.269,317.560 202.812 C 316.902 201.993,316.165 201.115,315.923 200.859 C 315.680 200.603,315.246 200.137,314.957 199.822 L 314.432 199.249 315.293 198.192 C 316.860 196.268,317.309 194.600,316.551 193.518 C 316.091 192.862,313.390 192.950,312.345 193.655 C 312.010 193.881,311.465 194.201,311.135 194.367 C 307.894 195.996,304.986 201.356,306.813 202.334 C 307.670 202.792,309.892 202.455,311.289 201.656 C 311.973 201.265,312.556 200.980,312.584 201.023 C 312.612 201.066,313.498 202.107,314.554 203.334 C 316.797 205.943,316.726 205.690,315.533 206.821 C 314.421 207.876,312.167 210.635,311.599 211.636 C 308.792 216.584,307.373 222.079,307.719 226.659 L 307.844 228.312 307.035 228.519 C 306.590 228.633,305.680 228.827,305.014 228.952 C 304.347 229.076,302.734 229.397,301.430 229.665 C 300.125 229.932,299.023 230.111,298.979 230.062 C 298.936 230.013,298.536 229.209,298.090 228.276 C 295.628 223.117,292.252 225.410,293.116 231.655 C 294.131 238.999,298.726 240.960,299.262 234.278 L 299.394 232.634 301.488 232.231 C 302.639 232.009,304.600 231.619,305.845 231.364 C 307.090 231.109,308.138 230.939,308.174 230.987 C 308.210 231.035,308.418 231.719,308.635 232.507 C 309.228 234.658,311.346 239.283,312.067 240.000 C 312.128 240.061,312.618 240.689,313.156 241.397 C 314.806 243.569,316.774 245.440,318.984 246.940 C 320.279 247.818,323.034 249.256,323.422 249.256 C 323.856 249.256,323.802 249.792,323.186 251.570 C 322.215 254.376,322.068 254.582,321.155 254.404 C 317.394 253.669,315.109 255.121,316.481 257.372 C 317.274 258.672,318.220 259.324,321.196 260.618 C 324.126 261.892,328.595 261.301,328.595 259.639 C 328.595 258.635,327.312 256.749,326.629 256.749 C 326.498 256.749,326.391 256.665,326.391 256.562 C 326.391 256.460,325.994 256.197,325.510 255.978 C 324.500 255.523,324.479 255.430,325.045 253.969 C 325.274 253.377,325.589 252.466,325.745 251.945 C 326.223 250.348,326.316 250.291,327.714 250.733 C 329.666 251.350,337.864 251.273,339.835 250.619 C 340.623 250.357,341.401 250.142,341.564 250.141 C 341.868 250.138,342.138 250.028,344.733 248.853 C 346.226 248.177,349.091 246.422,349.707 245.806 C 350.090 245.424,349.717 245.047,354.795 250.953 L 355.970 252.320 355.203 253.267 C 352.041 257.173,353.935 260.123,358.186 257.913 C 362.735 255.549,365.841 250.191,363.282 249.122 C 362.407 248.756,360.331 249.141,359.293 249.860 C 358.117 250.675,358.006 250.645,356.775 249.190 C 356.139 248.438,355.514 247.725,355.385 247.603 C 355.133 247.365,352.908 244.759,352.428 244.140 C 352.171 243.809,352.297 243.564,353.446 242.157 C 357.758 236.877,359.551 231.645,359.413 224.755 L 359.339 221.080 360.331 220.945 C 360.876 220.870,362.314 220.615,363.526 220.378 C 368.388 219.427,368.926 219.345,368.926 219.552 C 368.926 220.752,371.106 223.787,372.157 224.051 C 375.067 224.781,375.551 215.299,372.747 212.495 C 372.585 212.333,372.451 212.133,372.450 212.050 C 372.448 211.766,371.092 211.129,370.489 211.129 C 369.201 211.129,368.500 212.614,368.490 215.362 L 368.485 216.840 367.658 216.974 C 366.706 217.129,362.997 217.821,360.474 218.315 C 359.523 218.501,358.717 218.622,358.684 218.583 C 358.650 218.544,358.362 217.752,358.044 216.823 C 356.763 213.080,354.763 209.950,351.729 206.942 C 349.664 204.894,348.106 203.798,344.951 202.174 C 343.747 201.553,343.381 201.262,343.485 201.004 C 343.561 200.815,343.754 200.264,343.913 199.780 C 344.513 197.959,346.661 191.888,346.731 191.819 C 346.770 191.779,347.412 191.860,348.158 191.999 C 351.299 192.583,353.578 191.165,352.590 189.242 C 351.037 186.219,343.621 183.736,341.135 185.407 M68.981 186.876 C 65.709 187.369,63.623 189.266,64.325 191.112 C 64.779 192.307,68.219 193.916,70.358 193.934 L 70.964 193.939 70.964 200.427 L 70.964 206.915 69.917 207.046 C 69.342 207.117,68.077 207.332,67.107 207.522 C 66.138 207.713,64.898 207.950,64.353 208.049 C 63.807 208.149,62.992 208.387,62.542 208.578 C 62.091 208.769,61.565 208.926,61.373 208.926 C 60.829 208.926,56.245 211.214,54.672 212.271 C 53.893 212.795,53.107 213.322,52.924 213.444 C 51.061 214.683,47.116 218.702,45.948 220.552 C 45.901 220.625,44.468 219.822,40.021 217.233 C 39.646 217.015,39.171 216.742,38.966 216.626 C 38.618 216.431,38.620 216.355,39.002 215.481 C 40.174 212.799,40.057 209.472,38.767 208.805 C 35.462 207.095,29.532 214.453,29.532 220.263 C 29.532 224.542,32.564 224.472,36.305 220.107 L 37.016 219.278 38.728 220.195 C 39.670 220.699,40.590 221.221,40.771 221.355 C 41.100 221.596,41.422 221.785,42.950 222.631 C 44.123 223.280,44.174 223.376,43.704 224.060 C 41.493 227.282,39.780 234.096,39.780 239.669 C 39.780 244.536,40.292 247.145,42.325 252.635 L 42.801 253.921 42.294 254.288 C 42.015 254.490,41.512 254.804,41.176 254.986 C 40.840 255.168,38.887 256.284,36.836 257.466 C 32.753 259.818,32.743 259.822,32.383 259.148 C 31.255 257.041,28.103 255.298,26.296 255.782 C 24.203 256.344,25.423 263.178,28.181 266.351 C 28.439 266.648,28.650 266.945,28.650 267.011 C 28.650 267.843,32.369 270.413,33.573 270.413 C 35.935 270.413,36.284 268.047,34.679 262.911 C 34.554 262.511,34.881 262.295,40.551 259.041 C 42.187 258.102,43.739 257.198,43.998 257.032 C 44.436 256.752,44.507 256.791,44.983 257.566 C 45.596 258.566,45.464 258.390,47.354 260.716 C 48.191 261.747,49.458 263.098,50.168 263.720 C 51.989 265.314,53.727 266.667,53.954 266.667 C 54.060 266.667,54.323 266.861,54.538 267.099 C 54.989 267.597,60.577 270.413,61.114 270.413 C 61.311 270.413,61.798 270.561,62.196 270.742 C 63.463 271.317,67.786 272.176,69.411 272.176 L 70.975 272.176 70.915 275.757 L 70.854 279.338 69.201 279.594 C 60.603 280.928,63.868 287.086,72.948 286.661 C 81.703 286.251,83.711 280.501,75.427 279.562 L 74.050 279.406 74.050 275.791 L 74.050 272.176 75.496 272.176 C 78.313 272.176,83.009 270.883,86.722 269.084 C 89.544 267.717,90.690 266.979,93.318 264.838 C 95.069 263.412,98.292 260.029,98.292 259.617 C 98.292 259.494,98.371 259.394,98.468 259.394 C 98.565 259.394,98.916 258.972,99.247 258.457 C 100.486 256.530,100.267 256.596,102.005 257.611 C 102.854 258.107,103.646 258.512,103.767 258.512 C 103.887 258.512,104.018 258.593,104.059 258.692 C 104.099 258.791,104.911 259.312,105.862 259.849 C 106.813 260.387,108.152 261.146,108.837 261.536 C 109.522 261.926,110.162 262.275,110.258 262.311 C 110.355 262.347,110.240 262.821,110.002 263.364 C 108.413 266.999,109.077 270.413,111.372 270.413 C 112.701 270.413,116.804 267.108,116.804 266.037 C 116.804 265.898,116.879 265.784,116.970 265.783 C 117.061 265.782,117.448 265.162,117.832 264.406 C 120.282 259.568,120.164 255.647,117.568 255.647 C 116.723 255.647,115.041 256.250,115.041 256.553 C 115.041 256.661,114.931 256.749,114.795 256.749 C 114.537 256.749,113.292 257.965,112.463 259.026 L 111.978 259.646 109.752 258.363 C 108.528 257.657,107.259 256.920,106.931 256.726 C 106.604 256.531,105.890 256.106,105.344 255.781 C 104.799 255.456,104.055 255.048,103.691 254.874 C 103.328 254.700,102.786 254.365,102.488 254.130 L 101.945 253.702 102.415 252.636 C 105.828 244.889,105.797 231.972,102.353 226.619 C 102.180 226.351,102.039 226.019,102.039 225.882 C 102.039 225.745,101.831 225.341,101.577 224.985 C 101.032 224.219,101.123 223.854,101.967 223.421 C 102.310 223.246,102.948 222.897,103.386 222.646 C 103.824 222.395,104.419 222.057,104.708 221.894 C 104.997 221.731,105.383 221.488,105.565 221.354 C 105.747 221.221,106.441 220.828,107.107 220.482 C 107.774 220.136,108.596 219.665,108.934 219.437 C 110.346 218.482,112.049 217.691,112.136 217.950 C 112.523 219.112,115.587 221.577,116.924 221.802 C 122.234 222.695,118.770 210.537,112.875 207.590 C 109.542 205.924,107.999 209.366,110.005 213.991 C 110.241 214.535,110.355 215.008,110.258 215.044 C 110.049 215.120,108.097 216.223,104.704 218.182 C 98.754 221.617,99.585 221.443,98.131 219.559 C 96.457 217.393,93.515 214.435,93.032 214.435 C 92.895 214.435,92.782 214.349,92.782 214.243 C 92.782 213.889,88.730 211.319,86.501 210.259 C 83.111 208.648,79.257 207.581,74.876 207.044 L 73.829 206.915 73.829 200.456 L 73.829 193.997 74.766 193.888 C 80.982 193.163,82.674 189.275,77.607 187.362 C 76.082 186.786,71.349 186.520,68.981 186.876 M347.284 223.781 C 350.220 225.309,349.266 229.862,346.009 229.862 C 342.656 229.862,341.524 225.310,344.511 223.838 C 345.407 223.396,346.501 223.373,347.284 223.781 M321.914 230.341 C 322.862 231.232,322.526 232.936,321.319 233.357 C 320.019 233.810,318.917 233.002,318.905 231.586 C 318.892 230.081,320.798 229.292,321.914 230.341 M89.335 232.369 C 90.372 232.803,91.417 234.162,91.588 235.302 C 92.294 240.013,85.932 241.997,83.943 237.686 C 82.396 234.334,85.861 230.918,89.335 232.369 M61.322 251.015 C 62.678 252.519,61.635 254.750,59.572 254.761 C 58.280 254.768,57.513 254.077,57.367 252.775 C 57.110 250.474,59.768 249.291,61.322 251.015 " stroke="none" fill="#e45c81" fill-rule="evenodd"></path><path id="path3" d="M179.394 245.289 C 178.848 245.518,178.192 245.711,177.936 245.718 C 177.679 245.724,176.985 245.914,176.393 246.138 C 175.801 246.362,174.176 246.916,172.782 247.368 C 169.300 248.498,166.943 249.409,163.833 250.827 C 163.334 251.054,162.856 251.240,162.770 251.240 C 162.491 251.240,157.087 253.934,154.931 255.148 C 152.565 256.481,152.453 256.548,150.679 257.686 C 149.970 258.140,149.344 258.512,149.288 258.512 C 149.129 258.512,145.309 261.319,143.471 262.787 C 139.786 265.730,134.610 271.320,132.557 274.575 C 132.434 274.771,132.057 275.359,131.719 275.882 C 131.168 276.737,130.749 277.449,130.061 278.703 C 129.852 279.083,128.698 281.589,128.245 282.645 C 127.835 283.600,125.670 290.114,124.766 293.113 C 122.785 299.679,122.796 299.640,121.010 306.391 C 120.600 307.940,120.177 309.610,119.266 313.278 C 119.026 314.248,118.571 316.008,118.257 317.189 C 117.943 318.370,117.686 319.494,117.686 319.687 C 117.686 319.880,117.496 320.748,117.264 321.617 C 117.032 322.485,116.645 324.088,116.403 325.179 C 115.662 328.520,115.107 331.033,114.627 333.223 C 114.374 334.375,113.925 336.408,113.630 337.741 C 113.335 339.074,112.885 341.207,112.630 342.479 C 112.375 343.752,111.974 345.736,111.739 346.887 C 111.504 348.039,111.102 350.072,110.847 351.405 C 110.591 352.738,110.201 354.771,109.979 355.923 C 109.758 357.074,109.361 359.256,109.097 360.771 C 108.833 362.287,108.430 364.468,108.202 365.620 C 107.973 366.771,107.729 368.110,107.659 368.595 C 107.589 369.080,107.343 370.567,107.113 371.901 C 106.532 375.266,105.252 383.497,104.473 388.871 C 104.227 390.567,103.825 393.295,103.579 394.931 C 103.333 396.567,103.134 398.198,103.136 398.555 C 103.139 398.912,102.899 400.896,102.604 402.963 C 97.897 435.917,97.864 473.600,102.528 489.146 C 102.782 489.994,103.067 491.036,103.160 491.460 C 103.494 492.983,104.403 495.309,105.803 498.226 L 106.777 500.253 108.430 500.835 C 109.339 501.155,110.579 501.595,111.185 501.813 C 111.791 502.030,113.030 502.434,113.939 502.710 C 114.848 502.985,116.163 503.394,116.860 503.617 C 117.558 503.840,118.249 504.022,118.397 504.022 C 118.544 504.022,119.313 504.213,120.104 504.447 C 124.245 505.672,131.288 507.140,138.072 508.191 C 145.001 509.266,150.305 509.853,150.301 509.546 C 150.301 509.477,150.111 508.628,149.881 507.658 C 148.994 503.928,147.063 493.446,146.451 489.036 C 146.291 487.884,146.005 485.851,145.816 484.518 C 145.010 478.834,144.008 468.964,143.691 463.581 C 143.570 461.521,143.349 458.050,143.200 455.868 C 142.483 445.354,142.926 418.696,144.045 405.069 C 144.229 402.826,144.474 399.752,144.590 398.237 C 144.706 396.722,144.939 394.292,145.109 392.837 C 145.279 391.383,145.482 389.499,145.560 388.650 C 146.457 378.859,149.140 361.582,151.719 348.981 C 153.335 341.085,153.427 340.845,154.764 340.979 C 155.974 341.100,156.353 341.919,155.940 343.514 C 155.607 344.801,155.323 346.134,154.142 351.956 C 152.697 359.075,150.327 373.639,149.640 379.614 C 149.514 380.705,149.268 382.689,149.092 384.022 C 145.081 414.493,144.814 454.313,148.437 481.763 C 149.697 491.315,151.907 503.831,153.241 508.981 L 153.526 510.083 154.835 510.236 C 156.076 510.381,160.428 510.614,170.579 511.077 C 176.463 511.346,186.733 511.340,193.388 511.066 C 196.298 510.946,200.959 510.759,203.747 510.651 C 213.240 510.282,230.627 508.731,241.212 507.307 C 250.077 506.115,261.663 504.006,266.607 502.685 C 267.483 502.451,268.359 502.259,268.554 502.259 C 268.749 502.259,269.669 502.054,270.598 501.804 C 274.810 500.668,275.701 500.421,277.355 499.931 C 278.325 499.644,279.490 499.298,279.945 499.164 C 280.673 498.948,280.771 498.836,280.771 498.226 C 280.771 497.845,280.962 496.093,281.196 494.332 C 281.932 488.776,282.829 478.566,283.318 470.193 C 283.464 467.692,283.828 451.496,283.740 451.392 C 283.709 451.354,282.755 451.570,281.621 451.871 C 271.963 454.436,259.608 453.674,247.548 449.770 C 246.427 449.407,245.510 448.994,245.510 448.852 C 245.510 448.710,245.709 447.900,245.953 447.052 C 252.349 424.804,255.856 368.073,252.663 338.512 C 252.486 336.876,252.285 334.942,252.215 334.215 C 251.143 322.984,247.520 304.344,243.519 289.477 C 241.800 283.090,240.448 278.602,237.576 269.752 C 237.359 269.085,236.676 267.105,236.057 265.351 C 235.438 263.598,234.931 262.135,234.931 262.101 C 234.931 261.933,233.401 262.077,231.570 262.418 C 228.192 263.047,217.061 262.976,213.113 262.301 C 202.221 260.437,194.153 256.963,183.967 249.751 L 181.377 247.917 181.377 246.383 C 181.377 244.612,181.217 244.524,179.394 245.289 M269.724 245.754 L 268.705 246.637 269.884 248.837 C 272.579 253.864,276.337 261.879,279.898 270.193 C 284.598 281.167,290.610 300.361,293.221 312.727 C 296.266 327.154,297.741 337.319,298.894 351.846 C 299.619 360.979,299.618 383.656,298.892 392.837 C 297.250 413.604,294.057 432.142,289.570 446.958 L 288.931 449.068 287.826 449.586 L 286.722 450.103 286.718 455.189 C 286.712 462.703,286.198 473.835,285.489 481.763 C 284.866 488.734,284.732 490.052,284.263 493.833 C 284.003 495.926,283.833 497.681,283.885 497.733 C 284.044 497.891,285.379 497.499,288.375 496.413 C 289.950 495.841,291.636 495.235,292.121 495.066 C 293.083 494.730,293.860 494.412,297.190 492.987 C 301.122 491.304,302.875 490.495,305.455 489.168 C 308.469 487.618,309.419 487.116,309.862 486.841 C 310.044 486.728,310.937 486.220,311.846 485.713 C 313.636 484.714,314.618 484.098,318.376 481.616 L 320.829 479.996 321.083 478.290 C 321.222 477.352,321.432 475.691,321.549 474.601 C 321.665 473.510,322.006 470.336,322.306 467.548 C 323.668 454.880,325.061 437.468,325.938 422.149 C 326.361 414.743,326.544 410.731,327.073 397.276 C 327.423 388.360,327.223 359.650,326.760 352.287 C 325.492 332.157,324.075 321.185,321.296 309.972 C 320.299 305.950,318.436 300.017,317.539 298.008 C 317.284 297.437,316.880 296.523,316.641 295.978 C 315.428 293.205,313.205 289.306,312.114 288.036 C 311.962 287.858,311.633 287.466,311.384 287.163 C 310.448 286.027,303.789 278.803,300.716 275.591 C 300.110 274.958,299.165 273.955,298.616 273.363 C 290.540 264.659,271.263 244.834,270.901 244.860 C 270.815 244.866,270.285 245.268,269.724 245.754 " stroke="none" fill="#fbfbfb" fill-rule="evenodd"></path><path id="path4" d="M178.402 89.505 C 174.242 94.848,167.601 100.192,162.424 102.361 C 161.636 102.691,160.674 103.097,160.287 103.262 C 151.813 106.882,139.764 104.622,132.616 98.072 L 131.153 96.732 130.693 98.228 C 130.100 100.161,128.338 104.933,127.925 105.724 C 127.750 106.061,127.605 106.413,127.605 106.507 C 127.602 106.870,124.465 112.939,123.184 115.061 C 119.299 121.493,113.629 128.050,108.851 131.637 C 106.882 133.115,107.054 133.077,106.450 132.176 L 105.970 131.460 106.094 132.837 L 106.219 134.215 105.396 134.211 C 100.492 134.188,94.958 130.335,93.993 126.271 C 93.500 124.198,96.131 123.924,97.088 125.948 C 98.308 128.526,100.980 130.434,104.127 130.973 C 105.900 131.276,105.888 131.291,105.205 129.601 C 103.364 125.042,102.687 117.938,103.500 111.704 L 103.633 110.680 102.340 110.289 C 91.338 106.963,82.472 120.904,87.965 132.893 C 88.672 134.436,89.164 135.329,90.032 136.639 C 93.501 141.879,100.854 145.895,106.977 145.895 C 107.409 145.895,107.514 146.164,108.081 148.705 C 109.564 155.353,111.958 163.065,113.811 167.163 C 113.975 167.526,114.567 168.876,115.126 170.163 C 116.089 172.379,117.401 174.991,118.657 177.190 C 118.968 177.736,119.344 178.430,119.493 178.733 C 119.641 179.036,120.138 179.849,120.597 180.539 C 121.057 181.229,121.433 181.841,121.433 181.898 C 121.433 182.105,123.905 185.677,124.098 185.748 C 124.208 185.789,124.298 185.915,124.298 186.028 C 124.298 186.745,130.878 194.563,134.024 197.583 C 137.175 200.608,142.657 205.179,143.134 205.179 C 143.193 205.179,143.764 205.575,144.403 206.060 C 145.042 206.544,145.656 206.941,145.768 206.941 C 145.879 206.942,146.162 207.116,146.396 207.328 C 146.850 207.740,148.745 208.860,150.193 209.573 C 150.678 209.811,151.322 210.159,151.625 210.344 C 152.511 210.887,155.817 212.359,159.229 213.730 C 160.656 214.304,166.417 215.931,167.955 216.194 C 168.610 216.306,169.890 216.542,170.799 216.718 C 183.422 219.161,199.292 216.073,212.212 208.661 C 229.221 198.903,243.489 180.219,250.044 159.118 C 250.364 158.088,250.696 157.146,250.781 157.025 C 251.052 156.641,252.315 151.912,252.886 149.146 C 253.001 148.589,253.095 148.540,254.054 148.536 C 258.274 148.521,264.975 146.192,267.675 143.802 C 267.812 143.680,268.410 143.191,269.003 142.714 C 270.104 141.829,272.876 138.833,273.036 138.356 C 273.085 138.211,273.284 137.921,273.479 137.712 C 274.587 136.523,276.402 132.185,277.010 129.275 C 277.947 124.789,277.663 120.534,276.206 117.245 C 275.965 116.700,275.702 116.069,275.622 115.843 C 274.970 113.999,271.503 110.222,269.425 109.091 C 268.183 108.415,268.180 108.418,267.665 111.257 C 267.257 113.506,265.439 120.992,264.712 123.416 C 264.476 124.204,264.084 125.467,263.843 126.222 C 263.167 128.336,265.067 126.688,267.520 123.033 C 268.777 121.160,270.274 120.899,270.864 122.451 C 271.486 124.088,267.124 129.314,263.066 131.794 C 261.323 132.859,261.122 133.061,260.037 134.842 C 257.695 138.686,255.740 140.165,253.002 140.165 C 238.947 140.165,229.409 129.736,228.313 113.168 C 228.200 111.471,228.106 110.058,228.104 110.028 C 228.101 109.997,227.714 109.972,227.244 109.972 C 218.731 109.972,210.248 103.766,210.248 97.537 C 210.248 97.071,210.163 96.966,209.862 97.057 C 203.490 98.992,193.243 98.128,187.810 95.198 C 184.585 93.458,180.275 89.202,180.275 87.757 C 180.275 87.226,179.913 87.564,178.402 89.505 M181.398 117.521 C 181.648 117.672,182.681 118.887,183.693 120.220 C 189.133 127.389,194.660 130.946,200.968 131.336 L 203.478 131.491 204.218 132.299 C 205.178 133.345,205.255 134.710,204.412 135.712 C 202.370 138.140,194.726 136.705,188.760 132.775 C 184.737 130.125,178.038 123.021,177.485 120.819 C 176.880 118.406,179.379 116.299,181.398 117.521 M150.028 118.684 C 151.646 120.398,150.209 123.288,145.326 128.136 C 138.641 134.774,128.768 138.185,125.946 134.831 C 124.217 132.776,125.735 130.706,129.166 130.442 C 135.128 129.982,140.205 126.649,144.989 120.055 C 146.892 117.431,148.446 117.009,150.028 118.684 M163.156 134.262 C 167.059 138.366,171.803 158.813,169.379 161.090 C 167.191 163.146,156.738 163.162,155.396 161.111 C 154.108 159.143,155.633 145.300,157.874 138.619 C 159.598 133.478,161.173 132.178,163.156 134.262 M186.354 139.780 C 190.203 142.383,188.411 148.099,183.745 148.099 C 178.752 148.099,177.255 141.716,181.708 139.409 C 182.939 138.771,185.119 138.945,186.354 139.780 M144.799 140.724 C 146.854 142.086,147.496 144.666,146.307 146.782 C 144.714 149.616,140.280 149.803,138.438 147.114 C 135.601 142.974,140.608 137.945,144.799 140.724 M135.452 155.683 C 147.308 158.192,149.962 169.117,139.896 173.973 C 132.881 177.358,123.723 176.329,118.923 171.617 C 112.834 165.642,117.274 157.236,127.383 155.600 C 128.292 155.453,129.185 155.296,129.366 155.252 C 130.048 155.088,133.942 155.363,135.452 155.683 M214.396 155.816 C 220.660 157.312,224.772 161.427,224.524 165.950 C 223.979 175.923,205.487 179.649,197.223 171.452 C 188.984 163.278,200.757 152.559,214.396 155.816 M171.508 171.142 C 178.771 172.146,186.887 175.549,186.887 177.591 C 186.887 179.558,185.334 179.862,182.643 178.423 C 175.018 174.345,165.177 173.407,156.093 175.893 C 153.961 176.476,152.948 175.971,152.948 174.325 C 152.948 173.131,153.585 172.711,156.426 172.033 C 161.500 170.823,166.888 170.504,171.508 171.142 M249.821 183.912 C 237.067 201.995,223.806 213.300,211.704 216.407 L 210.184 216.798 211.704 217.104 C 219.733 218.723,241.779 215.281,249.894 211.141 C 251.127 210.512,251.030 211.851,250.966 196.253 L 250.909 182.369 249.821 183.912 " stroke="none" fill="#fbc4a4" fill-rule="evenodd"></path><path id="path5" d="M183.131 91.736 C 183.672 92.311,184.143 92.782,184.178 92.782 C 184.344 92.782,184.169 92.585,183.196 91.671 L 182.149 90.689 183.131 91.736 M228.150 110.634 C 228.150 111.058,228.196 111.231,228.251 111.019 C 228.307 110.807,228.307 110.460,228.251 110.248 C 228.196 110.036,228.150 110.209,228.150 110.634 M103.209 115.813 C 103.210 116.540,103.251 116.811,103.300 116.415 C 103.349 116.019,103.348 115.424,103.298 115.092 C 103.248 114.761,103.208 115.085,103.209 115.813 M103.207 119.890 C 103.207 120.556,103.248 120.829,103.298 120.496 C 103.349 120.163,103.349 119.617,103.298 119.284 C 103.248 118.950,103.207 119.223,103.207 119.890 M268.698 121.581 C 268.542 121.643,267.932 122.404,267.342 123.271 C 265.851 125.462,264.037 127.436,263.651 127.288 C 263.478 127.221,263.398 127.265,263.473 127.385 C 263.547 127.505,263.518 127.603,263.409 127.603 C 263.300 127.603,263.086 128.019,262.933 128.528 C 262.781 129.037,262.279 130.270,261.817 131.269 L 260.978 133.085 262.883 131.942 C 266.316 129.883,270.927 124.713,270.927 122.924 C 270.927 121.849,269.768 121.151,268.698 121.581 M141.267 124.408 C 140.732 124.953,140.343 125.399,140.404 125.399 C 140.465 125.399,140.952 124.953,141.488 124.408 C 142.023 123.862,142.411 123.416,142.351 123.416 C 142.290 123.416,141.803 123.862,141.267 124.408 M94.329 125.114 C 92.129 127.911,99.746 134.184,105.372 134.211 L 106.172 134.215 106.094 132.727 C 106.051 131.909,106.014 131.179,106.011 131.105 C 106.008 131.031,105.766 131.016,105.473 131.072 C 102.882 131.567,98.472 128.873,97.088 125.948 C 96.328 124.340,95.205 124.001,94.329 125.114 M183.361 128.375 C 184.019 129.041,184.608 129.587,184.668 129.587 C 184.729 129.587,184.240 129.041,183.581 128.375 C 182.923 127.708,182.335 127.163,182.274 127.163 C 182.213 127.163,182.702 127.708,183.361 128.375 M160.378 133.776 C 157.824 135.785,155.063 147.606,155.048 156.593 C 155.038 162.378,155.233 162.539,162.204 162.528 C 170.514 162.513,171.291 161.120,169.049 150.254 C 166.605 138.405,163.060 131.667,160.378 133.776 M146.832 144.463 C 146.835 144.948,146.880 145.120,146.933 144.846 C 146.985 144.572,146.983 144.175,146.928 143.964 C 146.873 143.754,146.830 143.978,146.832 144.463 M137.572 144.573 C 137.572 144.997,137.617 145.171,137.673 144.959 C 137.728 144.747,137.728 144.399,137.673 144.187 C 137.617 143.975,137.572 144.149,137.572 144.573 M129.366 155.252 C 129.185 155.296,128.292 155.453,127.383 155.600 C 113.450 157.856,112.272 171.894,125.730 175.294 C 141.131 179.184,153.372 165.608,141.324 157.999 C 138.314 156.098,131.931 154.632,129.366 155.252 M206.281 155.472 C 195.750 157.199,191.109 165.386,197.223 171.452 C 205.487 179.649,223.979 175.923,224.524 165.950 C 224.889 159.279,215.600 153.944,206.281 155.472 M250.768 157.025 C 250.691 157.146,250.365 158.088,250.045 159.118 C 242.853 182.242,227.530 201.091,207.936 210.915 L 204.628 212.573 204.563 213.689 C 204.484 215.028,204.529 215.070,206.794 215.842 C 209.722 216.839,210.610 216.833,213.702 215.800 C 223.029 212.681,233.888 204.216,243.016 192.948 C 245.473 189.916,246.629 188.381,249.874 183.850 L 251.023 182.245 250.966 169.525 C 250.935 162.528,250.846 156.904,250.768 157.025 M161.102 171.157 C 155.218 171.952,152.948 172.834,152.948 174.325 C 152.948 175.971,153.961 176.476,156.093 175.893 C 165.177 173.407,175.018 174.345,182.643 178.423 C 184.812 179.583,185.749 179.680,186.430 178.813 C 187.593 177.335,186.882 176.392,183.327 174.698 C 176.225 171.314,168.751 170.123,161.102 171.157 " stroke="none" fill="#fb9c84" fill-rule="evenodd"></path><path id="path6" d="M321.415 89.451 C 319.602 90.557,320.033 93.273,322.113 93.853 C 323.714 94.300,325.074 93.208,325.062 91.485 C 325.048 89.463,323.140 88.399,321.415 89.451 M302.418 94.227 C 302.081 94.464,301.928 94.796,301.928 95.295 C 301.928 96.712,303.472 97.268,304.340 96.164 C 305.350 94.880,303.765 93.284,302.418 94.227 M344.511 223.838 C 342.182 224.985,342.237 228.570,344.599 229.557 C 345.533 229.947,346.528 229.946,347.284 229.553 C 351.023 227.607,348.290 221.975,344.511 223.838 M319.479 230.319 C 318.827 230.831,318.683 232.095,319.199 232.774 C 319.900 233.696,321.703 233.663,322.209 232.719 C 323.211 230.845,321.133 229.018,319.479 230.319 M85.779 232.432 C 83.867 233.375,83.042 235.734,83.943 237.686 C 85.932 241.997,92.294 240.013,91.588 235.302 C 91.212 232.794,88.132 231.273,85.779 232.432 M58.708 250.343 C 57.777 250.740,57.247 251.701,57.367 252.775 C 57.697 255.722,61.928 255.336,61.928 252.360 C 61.928 250.954,60.044 249.774,58.708 250.343 " stroke="none" fill="#f498aa" fill-rule="evenodd"></path><path id="path7" d="M216.915 217.684 C 217.854 217.726,219.391 217.726,220.331 217.684 C 221.270 217.643,220.501 217.609,218.623 217.609 C 216.744 217.609,215.975 217.643,216.915 217.684 M216.253 262.631 C 216.466 262.687,216.813 262.687,217.025 262.631 C 217.237 262.576,217.063 262.530,216.639 262.530 C 216.215 262.530,216.041 262.576,216.253 262.631 M228.375 262.631 C 228.587 262.687,228.934 262.687,229.146 262.631 C 229.358 262.576,229.185 262.530,228.760 262.530 C 228.336 262.530,228.163 262.576,228.375 262.631 M219.342 262.858 C 219.677 262.909,220.173 262.907,220.444 262.855 C 220.715 262.803,220.441 262.761,219.835 262.763 C 219.229 262.764,219.007 262.807,219.342 262.858 M224.852 262.858 C 225.187 262.909,225.682 262.907,225.953 262.855 C 226.225 262.803,225.950 262.761,225.344 262.763 C 224.738 262.764,224.517 262.807,224.852 262.858 M253.279 344.793 C 253.281 345.278,253.326 345.451,253.379 345.176 C 253.432 344.902,253.430 344.506,253.375 344.295 C 253.319 344.084,253.276 344.309,253.279 344.793 M298.237 346.336 C 298.240 346.821,298.285 346.993,298.338 346.719 C 298.390 346.445,298.388 346.048,298.333 345.838 C 298.278 345.627,298.235 345.851,298.237 346.336 M253.510 348.209 C 253.510 348.876,253.551 349.149,253.601 348.815 C 253.652 348.482,253.652 347.937,253.601 347.603 C 253.551 347.270,253.510 347.543,253.510 348.209 M253.719 353.168 C 253.722 353.653,253.767 353.825,253.820 353.551 C 253.872 353.277,253.870 352.880,253.815 352.670 C 253.760 352.459,253.717 352.683,253.719 353.168 M299.134 359.229 C 299.134 360.017,299.174 360.339,299.223 359.945 C 299.272 359.551,299.272 358.906,299.223 358.512 C 299.174 358.118,299.134 358.441,299.134 359.229 M253.972 362.975 C 253.972 364.733,254.006 365.452,254.048 364.573 C 254.090 363.694,254.090 362.256,254.048 361.377 C 254.006 360.499,253.972 361.218,253.972 362.975 M299.369 366.501 C 299.369 368.017,299.404 368.636,299.447 367.879 C 299.490 367.121,299.490 365.882,299.447 365.124 C 299.404 364.366,299.369 364.986,299.369 366.501 M299.369 377.961 C 299.369 379.477,299.404 380.096,299.447 379.339 C 299.490 378.581,299.490 377.342,299.447 376.584 C 299.404 375.826,299.369 376.446,299.369 377.961 M253.734 377.521 C 253.734 378.309,253.774 378.631,253.823 378.237 C 253.872 377.843,253.872 377.198,253.823 376.804 C 253.774 376.410,253.734 376.733,253.734 377.521 M253.518 385.455 C 253.518 386.364,253.557 386.736,253.604 386.281 C 253.652 385.826,253.652 385.083,253.604 384.628 C 253.557 384.174,253.518 384.545,253.518 385.455 M299.134 385.455 C 299.134 386.242,299.174 386.565,299.223 386.171 C 299.272 385.777,299.272 385.132,299.223 384.738 C 299.174 384.344,299.134 384.667,299.134 385.455 M253.291 390.634 C 253.293 391.361,253.334 391.632,253.383 391.236 C 253.432 390.840,253.431 390.245,253.381 389.913 C 253.330 389.582,253.290 389.906,253.291 390.634 M253.054 394.931 C 253.054 395.355,253.099 395.529,253.155 395.317 C 253.210 395.105,253.210 394.758,253.155 394.545 C 253.099 394.333,253.054 394.507,253.054 394.931 M147.489 397.355 C 147.489 397.780,147.535 397.953,147.590 397.741 C 147.645 397.529,147.645 397.182,147.590 396.970 C 147.535 396.758,147.489 396.931,147.489 397.355 M298.233 398.457 C 298.233 398.882,298.278 399.055,298.334 398.843 C 298.389 398.631,298.389 398.284,298.334 398.072 C 298.278 397.860,298.233 398.033,298.233 398.457 M252.618 401.653 C 252.620 402.138,252.665 402.310,252.718 402.036 C 252.771 401.762,252.769 401.365,252.713 401.154 C 252.658 400.944,252.615 401.168,252.618 401.653 M252.397 404.959 C 252.400 405.444,252.445 405.616,252.497 405.342 C 252.550 405.068,252.548 404.671,252.493 404.460 C 252.438 404.250,252.395 404.474,252.397 404.959 M143.967 406.942 C 143.970 407.427,144.015 407.599,144.068 407.325 C 144.120 407.051,144.118 406.654,144.063 406.444 C 144.008 406.233,143.965 406.457,143.967 406.942 M146.616 408.154 C 146.616 408.700,146.659 408.923,146.712 408.650 C 146.765 408.377,146.765 407.931,146.712 407.658 C 146.659 407.386,146.616 407.609,146.616 408.154 M143.747 410.248 C 143.749 410.733,143.795 410.905,143.847 410.631 C 143.900 410.357,143.898 409.960,143.843 409.749 C 143.788 409.539,143.745 409.763,143.747 410.248 M251.511 414.545 C 251.511 414.970,251.557 415.143,251.612 414.931 C 251.667 414.719,251.667 414.372,251.612 414.160 C 251.557 413.948,251.511 414.121,251.511 414.545 M143.306 417.741 C 143.309 418.226,143.354 418.398,143.407 418.124 C 143.459 417.850,143.457 417.453,143.402 417.243 C 143.347 417.032,143.304 417.256,143.306 417.741 M145.955 420.275 C 145.955 420.821,145.998 421.044,146.051 420.771 C 146.103 420.499,146.103 420.052,146.051 419.780 C 145.998 419.507,145.955 419.730,145.955 420.275 M143.107 423.802 C 143.107 424.832,143.145 425.253,143.192 424.738 C 143.238 424.223,143.238 423.380,143.192 422.865 C 143.145 422.350,143.107 422.771,143.107 423.802 M145.757 427.218 C 145.758 428.551,145.794 429.068,145.838 428.367 C 145.882 427.665,145.881 426.574,145.837 425.942 C 145.793 425.310,145.757 425.884,145.757 427.218 M142.905 437.466 C 142.905 440.435,142.936 441.650,142.975 440.165 C 143.013 438.680,143.013 436.251,142.975 434.766 C 142.936 433.281,142.905 434.496,142.905 437.466 M145.756 447.383 C 145.756 448.656,145.793 449.176,145.837 448.540 C 145.882 447.904,145.882 446.862,145.837 446.226 C 145.793 445.590,145.756 446.110,145.756 447.383 M143.106 450.799 C 143.107 451.769,143.145 452.138,143.192 451.620 C 143.239 451.101,143.238 450.308,143.190 449.856 C 143.143 449.405,143.105 449.829,143.106 450.799 M286.599 450.091 C 286.539 450.248,286.517 451.959,286.551 453.893 L 286.613 457.410 286.723 453.609 C 286.830 449.874,286.818 449.521,286.599 450.091 M262.975 453.044 C 263.187 453.100,263.534 453.100,263.747 453.044 C 263.959 452.989,263.785 452.944,263.361 452.944 C 262.937 452.944,262.763 452.989,262.975 453.044 M266.171 453.268 C 266.444 453.321,266.890 453.321,267.163 453.268 C 267.435 453.216,267.212 453.173,266.667 453.173 C 266.121 453.173,265.898 453.216,266.171 453.268 M271.460 453.268 C 271.733 453.321,272.179 453.321,272.452 453.268 C 272.725 453.216,272.501 453.173,271.956 453.173 C 271.410 453.173,271.187 453.216,271.460 453.268 M145.951 454.105 C 145.953 454.590,145.998 454.762,146.051 454.488 C 146.104 454.214,146.102 453.817,146.047 453.606 C 145.992 453.396,145.948 453.620,145.951 454.105 M143.302 456.419 C 143.302 456.843,143.347 457.017,143.403 456.804 C 143.458 456.592,143.458 456.245,143.403 456.033 C 143.347 455.821,143.302 455.994,143.302 456.419 M283.718 461.047 C 283.718 462.320,283.754 462.840,283.799 462.204 C 283.843 461.567,283.843 460.526,283.799 459.890 C 283.754 459.253,283.718 459.774,283.718 461.047 M143.743 463.471 C 143.743 463.895,143.788 464.069,143.843 463.857 C 143.899 463.645,143.899 463.298,143.843 463.085 C 143.788 462.873,143.743 463.047,143.743 463.471 M286.357 464.463 C 286.357 465.433,286.396 465.802,286.443 465.283 C 286.489 464.765,286.489 463.972,286.441 463.520 C 286.394 463.069,286.356 463.493,286.357 464.463 M146.612 465.344 C 146.614 465.829,146.660 466.002,146.712 465.727 C 146.765 465.453,146.763 465.057,146.708 464.846 C 146.653 464.635,146.610 464.860,146.612 465.344 M143.967 466.446 C 143.970 466.931,144.015 467.104,144.068 466.829 C 144.120 466.555,144.118 466.159,144.063 465.948 C 144.008 465.737,143.965 465.961,143.967 466.446 M283.479 467.769 C 283.481 468.375,283.523 468.596,283.574 468.261 C 283.625 467.926,283.623 467.431,283.571 467.160 C 283.519 466.888,283.477 467.163,283.479 467.769 M286.112 470.303 C 286.112 470.727,286.157 470.901,286.213 470.689 C 286.268 470.477,286.268 470.129,286.213 469.917 C 286.157 469.705,286.112 469.879,286.112 470.303 M285.671 477.135 C 285.671 477.559,285.716 477.733,285.772 477.521 C 285.827 477.309,285.827 476.961,285.772 476.749 C 285.716 476.537,285.671 476.711,285.671 477.135 M282.810 478.788 C 282.813 479.273,282.858 479.445,282.911 479.171 C 282.963 478.897,282.961 478.500,282.906 478.289 C 282.851 478.079,282.808 478.303,282.810 478.788 M285.455 480.331 C 285.457 480.815,285.503 480.988,285.555 480.714 C 285.608 480.440,285.606 480.043,285.551 479.832 C 285.496 479.621,285.453 479.846,285.455 480.331 " stroke="none" fill="#a4d2e9" fill-rule="evenodd"></path><path id="path8" d="M181.443 246.832 C 181.443 247.499,181.485 247.771,181.535 247.438 C 181.586 247.105,181.586 246.559,181.535 246.226 C 181.485 245.893,181.443 246.165,181.443 246.832 M217.689 262.856 C 217.963 262.908,218.359 262.906,218.570 262.851 C 218.781 262.796,218.556 262.753,218.072 262.755 C 217.587 262.758,217.414 262.803,217.689 262.856 M226.724 262.856 C 226.998 262.908,227.395 262.906,227.606 262.851 C 227.817 262.796,227.592 262.753,227.107 262.755 C 226.623 262.758,226.450 262.803,226.724 262.856 M253.279 346.336 C 253.281 346.821,253.326 346.993,253.379 346.719 C 253.432 346.445,253.430 346.048,253.375 345.838 C 253.319 345.627,253.276 345.851,253.279 346.336 M298.453 347.769 C 298.453 348.193,298.499 348.366,298.554 348.154 C 298.610 347.942,298.610 347.595,298.554 347.383 C 298.499 347.171,298.453 347.344,298.453 347.769 M253.495 349.972 C 253.495 350.397,253.540 350.570,253.595 350.358 C 253.651 350.146,253.651 349.799,253.595 349.587 C 253.540 349.375,253.495 349.548,253.495 349.972 M253.724 354.821 C 253.724 355.366,253.767 355.590,253.819 355.317 C 253.872 355.044,253.872 354.598,253.819 354.325 C 253.767 354.052,253.724 354.275,253.724 354.821 M299.119 357.135 C 299.121 357.620,299.167 357.792,299.219 357.518 C 299.272 357.244,299.270 356.847,299.215 356.637 C 299.160 356.426,299.116 356.650,299.119 357.135 M299.359 362.204 C 299.360 363.174,299.399 363.543,299.445 363.024 C 299.492 362.506,299.491 361.713,299.444 361.261 C 299.397 360.810,299.358 361.234,299.359 362.204 M253.736 374.766 C 253.737 375.614,253.777 375.934,253.825 375.477 C 253.872 375.020,253.872 374.326,253.823 373.934 C 253.774 373.543,253.735 373.917,253.736 374.766 M299.359 382.259 C 299.360 383.229,299.399 383.598,299.445 383.080 C 299.492 382.561,299.491 381.768,299.444 381.316 C 299.397 380.865,299.358 381.289,299.359 382.259 M253.512 382.700 C 253.513 383.427,253.554 383.698,253.603 383.302 C 253.652 382.906,253.651 382.311,253.601 381.980 C 253.551 381.648,253.511 381.972,253.512 382.700 M299.119 387.548 C 299.121 388.033,299.167 388.205,299.219 387.931 C 299.272 387.657,299.270 387.260,299.215 387.050 C 299.160 386.839,299.116 387.063,299.119 387.548 M253.291 388.209 C 253.293 388.937,253.334 389.208,253.383 388.811 C 253.432 388.415,253.431 387.820,253.381 387.489 C 253.330 387.158,253.290 387.482,253.291 388.209 M253.063 393.388 C 253.063 393.934,253.106 394.157,253.158 393.884 C 253.211 393.612,253.211 393.165,253.158 392.893 C 253.106 392.620,253.063 392.843,253.063 393.388 M147.710 395.813 C 147.710 396.237,147.755 396.410,147.810 396.198 C 147.866 395.986,147.866 395.639,147.810 395.427 C 147.755 395.215,147.710 395.388,147.710 395.813 M298.453 396.915 C 298.453 397.339,298.499 397.512,298.554 397.300 C 298.610 397.088,298.610 396.741,298.554 396.529 C 298.499 396.317,298.453 396.490,298.453 396.915 M144.624 397.576 C 144.624 398.000,144.669 398.174,144.725 397.961 C 144.780 397.749,144.780 397.402,144.725 397.190 C 144.669 396.978,144.624 397.152,144.624 397.576 M252.393 403.526 C 252.393 403.950,252.438 404.124,252.494 403.912 C 252.549 403.700,252.549 403.353,252.494 403.140 C 252.438 402.928,252.393 403.102,252.393 403.526 M143.963 405.510 C 143.963 405.934,144.008 406.107,144.064 405.895 C 144.119 405.683,144.119 405.336,144.064 405.124 C 144.008 404.912,143.963 405.085,143.963 405.510 M146.832 406.501 C 146.835 406.986,146.880 407.159,146.933 406.884 C 146.985 406.610,146.983 406.214,146.928 406.003 C 146.873 405.792,146.830 406.017,146.832 406.501 M143.751 408.595 C 143.751 409.140,143.794 409.364,143.847 409.091 C 143.900 408.818,143.900 408.372,143.847 408.099 C 143.794 407.826,143.751 408.050,143.751 408.595 M146.608 409.697 C 146.608 410.121,146.653 410.295,146.708 410.083 C 146.764 409.871,146.764 409.523,146.708 409.311 C 146.653 409.099,146.608 409.273,146.608 409.697 M143.090 421.157 C 143.090 421.702,143.133 421.926,143.186 421.653 C 143.238 421.380,143.238 420.934,143.186 420.661 C 143.133 420.388,143.090 420.612,143.090 421.157 M145.968 422.590 C 145.969 423.438,146.008 423.758,146.056 423.301 C 146.104 422.844,146.103 422.149,146.054 421.758 C 146.006 421.367,145.967 421.741,145.968 422.590 M142.896 429.311 C 142.896 430.948,142.931 431.617,142.973 430.799 C 143.016 429.981,143.016 428.642,142.973 427.824 C 142.931 427.006,142.896 427.675,142.896 429.311 M145.774 437.355 C 145.774 441.719,145.804 443.535,145.840 441.392 C 145.876 439.248,145.876 435.678,145.840 433.458 C 145.804 431.238,145.774 432.992,145.774 437.355 M142.896 445.510 C 142.896 447.085,142.931 447.701,142.974 446.878 C 143.016 446.055,143.016 444.765,142.973 444.013 C 142.930 443.260,142.895 443.934,142.896 445.510 M145.966 452.011 C 145.966 452.799,146.006 453.121,146.055 452.727 C 146.104 452.333,146.104 451.689,146.055 451.295 C 146.006 450.901,145.966 451.223,145.966 452.011 M143.090 453.333 C 143.090 453.879,143.133 454.102,143.186 453.829 C 143.238 453.556,143.238 453.110,143.186 452.837 C 143.133 452.565,143.090 452.788,143.090 453.333 M264.408 453.268 C 264.680 453.321,265.127 453.321,265.399 453.268 C 265.672 453.216,265.449 453.173,264.904 453.173 C 264.358 453.173,264.135 453.216,264.408 453.268 M273.113 453.265 C 273.325 453.320,273.672 453.320,273.884 453.265 C 274.096 453.209,273.923 453.164,273.499 453.164 C 273.074 453.164,272.901 453.209,273.113 453.265 M283.723 455.978 C 283.723 457.614,283.757 458.284,283.800 457.466 C 283.842 456.647,283.842 455.309,283.800 454.490 C 283.757 453.672,283.723 454.342,283.723 455.978 M286.585 459.725 C 286.585 461.118,286.621 461.689,286.664 460.992 C 286.708 460.295,286.708 459.154,286.664 458.457 C 286.621 457.760,286.585 458.331,286.585 459.725 M146.608 463.912 C 146.608 464.336,146.653 464.510,146.708 464.298 C 146.764 464.085,146.764 463.738,146.708 463.526 C 146.653 463.314,146.608 463.488,146.608 463.912 M283.488 465.344 C 283.489 466.193,283.529 466.513,283.577 466.056 C 283.625 465.598,283.624 464.904,283.575 464.513 C 283.526 464.122,283.487 464.496,283.488 465.344 M143.747 464.904 C 143.749 465.388,143.795 465.561,143.847 465.287 C 143.900 465.013,143.898 464.616,143.843 464.405 C 143.788 464.194,143.745 464.419,143.747 464.904 M146.828 466.777 C 146.828 467.201,146.873 467.375,146.929 467.163 C 146.984 466.950,146.984 466.603,146.929 466.391 C 146.873 466.179,146.828 466.353,146.828 466.777 M286.344 467.107 C 286.346 467.713,286.388 467.935,286.439 467.600 C 286.490 467.265,286.488 466.769,286.436 466.498 C 286.384 466.227,286.342 466.501,286.344 467.107 M285.675 478.567 C 285.678 479.052,285.723 479.225,285.776 478.951 C 285.828 478.676,285.826 478.280,285.771 478.069 C 285.716 477.858,285.673 478.083,285.675 478.567 M282.590 480.331 C 282.592 480.815,282.638 480.988,282.690 480.714 C 282.743 480.440,282.741 480.043,282.686 479.832 C 282.631 479.621,282.588 479.846,282.590 480.331 " stroke="none" fill="#cbe6f4" fill-rule="evenodd"></path></g></svg>