<svg id="svg" version="1.1" xmlns="http://www.w3.org/2000/svg" xmlns:xlink="http://www.w3.org/1999/xlink" width="400" height="400" viewBox="0, 0, 400,400"><g id="svgg"><path id="path0" d="M184.990 66.417 C 183.717 67.060,182.311 68.567,181.937 69.690 C 181.867 69.898,180.371 69.869,177.776 69.610 C 163.873 68.220,159.283 73.219,162.115 86.667 C 163.735 94.359,166.544 99.017,171.797 102.719 L 174.167 104.388 174.473 102.856 C 174.707 101.689,174.906 101.363,175.307 101.486 C 187.508 105.242,207.251 108.112,221.113 108.146 L 229.393 108.167 229.280 114.333 C 229.189 119.276,229.056 120.714,228.610 121.580 C 227.919 122.923,228.273 123.173,229.902 122.494 C 231.763 121.718,233.299 120.098,234.361 117.794 C 235.440 115.451,236.418 114.999,240.398 115.001 C 244.992 115.004,246.497 117.842,245.172 124.000 C 244.822 125.626,245.928 122.987,247.128 119.333 C 250.727 108.374,250.086 99.557,245.259 93.631 L 243.740 91.766 244.065 89.974 C 245.011 84.771,242.534 80.102,237.486 77.569 C 234.952 76.298,233.120 75.858,221.307 73.685 C 202.800 70.282,198.896 69.337,193.716 67.004 C 190.069 65.362,187.429 65.184,184.990 66.417 M178.500 107.773 C 174.799 109.467,176.468 111.739,181.859 112.346 C 187.004 112.925,189.469 111.860,188.403 109.519 C 187.576 107.704,181.133 106.568,178.500 107.773 M202.399 112.088 C 200.798 113.809,202.189 115.415,206.369 116.671 C 211.006 118.065,213.333 117.797,213.333 115.871 C 213.333 112.857,204.521 109.808,202.399 112.088 M180.255 116.306 C 177.994 118.326,179.329 123.000,182.167 123.000 C 182.619 123.000,183.479 122.562,184.078 122.027 C 186.339 120.007,185.005 115.333,182.167 115.333 C 181.714 115.333,180.854 115.771,180.255 116.306 M203.589 119.973 C 201.327 121.993,202.662 126.667,205.500 126.667 C 205.953 126.667,206.813 126.229,207.411 125.694 C 209.673 123.674,208.338 119.000,205.500 119.000 C 205.047 119.000,204.187 119.438,203.589 119.973 M242.134 128.945 C 240.246 130.707,238.495 131.399,235.667 131.500 L 233.833 131.566 233.580 133.329 C 233.039 137.082,230.940 142.228,228.309 146.251 L 227.600 147.336 229.050 147.994 C 232.926 149.753,233.847 149.074,235.833 143.000 C 236.914 139.692,237.496 138.474,239.456 135.416 C 240.907 133.153,244.149 127.322,243.944 127.346 C 243.883 127.353,243.069 128.072,242.134 128.945 M190.889 378.222 C 190.767 378.344,190.667 378.778,190.667 379.186 C 190.667 379.980,188.786 380.494,187.912 379.939 C 186.967 379.339,185.591 379.675,184.491 380.776 C 183.560 381.706,183.357 381.793,183.231 381.310 C 182.743 379.444,178.095 379.186,177.666 381.001 C 177.506 381.680,177.429 381.729,177.252 381.267 C 176.831 380.171,175.145 379.617,172.977 379.862 L 170.980 380.088 171.073 384.128 C 171.164 388.030,171.192 388.170,171.917 388.273 C 172.543 388.362,172.667 388.224,172.667 387.437 C 172.667 386.531,172.721 386.500,174.107 386.610 C 175.274 386.703,175.743 386.559,176.582 385.853 L 177.618 384.982 177.726 385.741 C 177.959 387.383,179.158 386.671,179.254 384.833 C 179.400 382.028,179.560 381.667,180.658 381.667 L 181.637 381.667 181.735 384.083 C 181.845 386.778,182.933 387.737,183.344 385.500 C 183.524 384.521,183.536 384.515,183.931 385.230 C 184.194 385.704,184.218 386.032,184.001 386.166 C 182.833 386.888,184.848 388.667,186.834 388.667 C 189.258 388.667,190.000 387.640,190.000 384.285 C 190.000 382.762,190.139 381.667,190.333 381.667 C 190.517 381.667,190.669 382.454,190.672 383.417 C 190.679 385.887,191.382 386.621,193.667 386.541 L 194.833 386.500 194.931 384.083 C 194.985 382.754,195.139 381.667,195.273 381.667 C 195.408 381.667,195.460 382.266,195.391 382.998 C 195.104 386.008,199.114 387.899,201.168 385.722 L 202.060 384.778 203.004 385.722 C 205.155 387.873,208.492 386.431,208.610 383.299 C 208.733 380.046,205.153 378.484,202.850 380.786 L 202.092 381.545 201.041 380.606 C 199.876 379.565,198.659 379.414,197.273 380.137 C 196.533 380.523,196.351 380.527,196.209 380.157 C 196.082 379.825,195.563 379.760,194.186 379.902 L 192.333 380.093 192.333 379.047 C 192.333 378.036,191.532 377.579,190.889 378.222 M211.553 380.351 C 208.315 382.898,211.195 388.354,214.750 386.407 C 215.968 385.740,216.167 385.714,216.664 386.164 C 217.375 386.807,219.312 386.811,220.225 386.171 C 220.854 385.731,220.954 385.734,221.131 386.195 C 221.734 387.764,222.832 386.534,222.934 384.176 C 223.024 382.076,223.313 381.355,224.069 381.338 C 224.199 381.336,224.349 382.496,224.403 383.917 C 224.497 386.424,224.525 386.500,225.333 386.500 C 226.137 386.500,226.170 386.414,226.265 384.067 C 226.337 382.280,226.496 381.583,226.863 381.443 C 227.647 381.142,227.822 381.552,228.000 384.110 C 228.260 387.835,229.134 387.481,229.263 383.599 C 229.372 380.303,228.730 379.335,226.749 379.808 C 226.246 379.928,225.608 380.006,225.333 379.981 C 223.732 379.834,221.563 380.005,221.200 380.306 C 220.900 380.555,220.594 380.516,220.139 380.172 C 219.241 379.492,217.569 379.552,216.621 380.298 C 215.833 380.917,215.804 380.917,215.039 380.298 C 214.023 379.475,212.640 379.496,211.553 380.351 M187.592 381.852 C 188.904 382.771,188.245 385.000,186.662 385.000 C 185.266 385.000,184.618 383.048,185.667 382.000 C 186.469 381.197,186.639 381.184,187.592 381.852 M200.192 382.040 C 200.291 382.201,199.689 382.333,198.853 382.333 C 197.189 382.333,196.932 382.127,198.071 381.706 C 198.871 381.410,199.902 381.572,200.192 382.040 M206.186 381.823 C 206.788 382.278,206.735 382.313,205.417 382.323 C 203.548 382.337,203.509 381.755,205.353 381.372 C 205.455 381.351,205.830 381.554,206.186 381.823 M214.451 382.151 C 215.453 383.079,215.554 383.511,214.833 383.787 C 214.558 383.893,214.333 384.209,214.333 384.490 C 214.333 385.104,212.982 385.182,212.400 384.600 C 211.610 383.810,211.976 381.966,213.000 381.576 C 213.275 381.472,213.516 381.374,213.535 381.360 C 213.554 381.345,213.966 381.701,214.451 382.151 M219.267 381.733 C 220.058 382.525,219.764 384.630,218.829 384.864 C 217.745 385.136,217.000 384.506,217.000 383.316 C 217.000 381.776,218.360 380.827,219.267 381.733 M175.600 382.067 C 176.646 383.112,175.743 385.000,174.196 385.000 C 173.293 385.000,172.514 383.434,172.946 382.486 C 173.357 381.583,174.877 381.343,175.600 382.067 M193.000 383.167 C 193.000 383.992,192.850 384.667,192.667 384.667 C 192.483 384.667,192.333 383.992,192.333 383.167 C 192.333 382.342,192.483 381.667,192.667 381.667 C 192.850 381.667,193.000 382.342,193.000 383.167 M200.000 384.500 C 199.772 384.775,199.247 385.000,198.833 385.000 C 198.420 385.000,197.895 384.775,197.667 384.500 C 197.308 384.068,197.465 384.000,198.833 384.000 C 200.201 384.000,200.359 384.068,200.000 384.500 M206.333 384.500 C 206.105 384.775,205.580 385.000,205.167 385.000 C 204.753 385.000,204.228 384.775,204.000 384.500 C 203.641 384.068,203.799 384.000,205.167 384.000 C 206.535 384.000,206.692 384.068,206.333 384.500 M208.889 385.222 C 208.539 385.572,208.629 386.604,209.032 386.853 C 209.682 387.255,210.515 386.121,210.014 385.517 C 209.549 384.957,209.236 384.875,208.889 385.222 " stroke="none" fill="#23343c" fill-rule="evenodd"></path><path id="path1" d="M173.514 124.545 C 175.446 143.910,183.223 155.579,195.249 157.158 C 201.269 157.948,202.899 158.056,206.000 157.870 C 215.165 157.322,225.241 152.544,226.696 148.057 C 226.914 147.384,227.662 146.209,228.359 145.447 C 229.871 143.790,231.028 141.589,232.163 138.210 C 233.413 134.484,233.194 134.562,231.179 138.556 C 230.178 140.542,228.976 142.617,228.509 143.167 L 227.659 144.167 227.901 143.167 C 228.312 141.474,228.081 132.987,227.562 130.667 C 227.114 128.669,227.122 128.435,227.663 127.667 C 228.962 125.819,230.410 122.566,229.834 122.787 C 229.529 122.904,229.087 123.000,228.853 123.000 C 228.620 123.000,227.886 123.878,227.224 124.951 C 225.582 127.611,225.549 127.629,221.452 128.149 C 207.242 129.953,186.416 127.617,173.909 122.816 C 173.373 122.610,173.336 122.769,173.514 124.545 M224.992 164.855 C 224.813 165.325,224.667 165.865,224.667 166.055 C 224.667 166.245,223.250 170.773,221.519 176.117 C 219.787 181.461,214.537 197.653,209.852 212.098 C 204.834 227.569,201.337 238.871,201.342 239.598 C 201.347 240.278,201.672 242.933,202.066 245.500 C 202.770 250.102,202.782 250.927,202.902 304.917 L 203.024 359.667 236.846 359.667 L 270.667 359.667 270.667 339.110 C 270.667 322.307,270.749 318.456,271.118 318.026 C 271.512 317.567,271.195 317.138,268.620 314.646 L 265.671 311.793 264.782 312.720 L 263.893 313.648 264.946 315.934 C 265.526 317.191,265.997 318.358,265.992 318.527 C 265.981 318.975,263.683 315.241,263.674 314.760 C 263.670 314.537,263.442 314.441,263.167 314.546 C 262.826 314.677,262.667 314.528,262.667 314.078 C 262.667 313.715,261.966 312.252,261.110 310.828 C 256.750 303.573,251.333 288.321,251.333 283.297 L 251.333 282.333 248.222 282.333 C 244.405 282.333,244.704 281.908,245.213 286.610 C 246.031 294.158,248.405 303.264,254.952 323.963 C 255.859 326.829,255.324 326.138,254.079 322.833 C 249.715 311.253,245.341 294.525,244.667 286.838 C 244.478 284.684,244.232 282.772,244.119 282.590 C 243.716 281.937,244.887 281.677,248.244 281.672 C 251.505 281.667,251.662 281.699,251.838 282.417 C 251.940 282.829,252.379 284.667,252.815 286.500 C 254.463 293.438,254.317 293.123,259.912 301.778 C 265.818 310.911,271.460 317.751,272.301 316.797 C 301.247 283.970,314.726 263.623,314.697 252.802 C 314.658 238.718,299.754 216.658,273.891 192.406 C 256.142 175.761,248.624 170.382,237.333 166.244 C 231.801 164.217,231.939 163.001,236.215 176.097 C 238.263 182.369,240.164 188.237,240.441 189.137 L 240.944 190.774 238.676 193.470 C 236.171 196.448,229.219 203.348,227.231 204.829 L 225.962 205.775 227.754 207.638 C 231.102 211.117,234.981 216.000,234.397 216.000 C 234.206 216.000,232.075 213.714,229.662 210.919 L 225.275 205.838 229.449 201.906 C 231.744 199.743,235.109 196.292,236.928 194.237 L 240.233 190.500 235.937 177.456 L 231.640 164.411 230.612 164.206 C 227.878 163.659,225.335 163.953,224.992 164.855 M183.167 168.136 L 181.167 168.519 179.569 172.510 C 178.067 176.260,175.985 182.880,174.278 189.333 C 173.236 193.271,173.105 191.807,174.123 187.602 C 175.505 181.890,177.278 176.427,179.009 172.548 C 179.911 170.526,180.594 168.816,180.525 168.747 C 180.055 168.277,164.631 172.486,161.267 174.002 C 158.118 175.422,159.055 174.335,148.050 189.331 C 134.787 207.403,127.207 216.736,124.079 218.842 C 119.815 221.713,115.447 223.338,112.013 223.328 C 109.046 223.320,109.141 222.838,112.121 222.784 C 115.489 222.723,120.311 221.145,122.306 219.451 C 122.383 219.386,121.302 218.170,119.905 216.750 C 116.925 213.720,112.094 207.853,105.730 199.535 C 103.220 196.254,100.931 193.271,100.643 192.906 C 100.133 192.258,100.006 192.317,95.643 195.228 C 91.046 198.295,87.057 200.631,82.667 202.827 C 81.292 203.515,80.124 204.116,80.071 204.162 C 79.140 204.983,92.836 231.581,98.697 240.333 C 111.786 259.881,120.612 263.561,135.942 255.863 C 141.243 253.200,153.333 244.474,153.333 243.310 C 153.333 243.118,153.482 243.052,153.663 243.164 C 153.849 243.279,153.909 243.152,153.802 242.871 C 153.697 242.597,153.861 240.745,154.168 238.755 C 154.683 235.409,154.684 234.997,154.185 233.280 C 153.093 229.523,152.678 224.479,152.734 215.667 L 152.789 207.167 153.008 216.500 C 153.221 225.546,153.908 232.329,154.696 233.150 C 154.863 233.324,155.000 233.361,155.000 233.231 C 155.000 233.102,155.218 231.534,155.484 229.748 C 156.195 224.987,158.306 206.316,158.811 200.333 C 159.237 195.281,159.247 195.237,159.278 198.333 C 159.311 201.639,159.174 203.395,158.007 214.667 C 157.278 221.710,155.700 233.963,154.865 239.062 C 154.604 240.654,154.464 242.529,154.553 243.228 C 154.679 244.219,150.793 346.692,150.229 357.250 L 150.100 359.667 176.133 359.667 L 202.167 359.667 202.082 304.750 C 201.979 238.262,202.954 250.460,194.324 207.667 C 186.326 168.002,186.252 167.662,185.680 167.709 C 185.398 167.733,184.267 167.925,183.167 168.136 M92.607 182.768 C 92.129 183.241,77.442 192.234,75.876 193.013 C 75.350 193.275,74.842 193.690,74.748 193.935 C 74.501 194.580,77.699 205.000,78.145 205.000 C 78.721 205.000,80.000 204.010,80.000 203.564 C 80.000 203.346,82.213 201.983,84.917 200.536 C 90.346 197.631,101.319 190.694,101.328 190.161 C 101.335 189.693,93.915 182.333,93.435 182.333 C 93.222 182.333,92.849 182.529,92.607 182.768 M253.941 192.090 C 253.951 200.216,254.113 203.040,255.186 213.833 C 257.271 234.788,261.083 247.085,266.333 249.786 C 269.963 251.654,273.062 253.499,274.806 254.830 L 276.333 255.996 276.333 253.892 C 276.333 250.673,274.791 246.484,271.957 242.000 C 271.087 240.624,271.477 240.970,272.898 242.833 C 275.438 246.167,277.000 250.650,277.000 254.612 C 277.000 255.904,277.150 257.053,277.333 257.167 C 279.108 258.263,275.731 265.067,269.309 273.333 C 267.956 275.075,266.821 276.687,266.788 276.915 C 266.614 278.086,255.446 290.000,254.521 290.000 C 254.377 290.000,256.977 287.213,260.297 283.807 C 266.244 277.706,266.330 277.596,266.157 276.391 C 266.061 275.717,265.313 269.204,264.496 261.915 L 263.010 248.664 261.538 245.582 C 259.711 241.757,258.323 237.625,257.228 232.751 C 256.501 229.511,256.250 228.887,255.384 228.158 C 254.189 227.153,252.264 224.174,250.352 220.370 C 248.397 216.483,249.196 217.284,252.002 222.026 C 254.375 226.036,256.550 228.869,256.205 227.500 C 255.653 225.309,254.262 213.555,253.641 205.833 C 252.994 197.788,253.110 183.667,253.823 183.667 C 253.882 183.667,253.935 187.457,253.941 192.090 M181.761 201.594 C 183.042 203.112,184.011 204.434,183.914 204.530 C 183.682 204.763,173.329 193.330,173.348 192.862 C 173.366 192.415,178.606 197.854,181.761 201.594 M183.783 206.583 C 182.075 208.728,180.070 211.836,178.346 215.010 L 176.686 218.064 177.618 219.282 C 178.130 219.952,179.167 221.325,179.922 222.333 C 180.678 223.342,182.667 225.817,184.343 227.833 C 191.810 236.817,201.106 250.850,200.598 252.372 C 200.522 252.600,199.825 251.631,199.050 250.218 C 195.920 244.515,188.647 234.230,182.868 227.333 C 179.720 223.577,176.332 218.718,176.335 217.963 C 176.339 216.737,181.064 208.802,183.319 206.234 C 184.724 204.634,185.106 204.922,183.783 206.583 M234.702 217.250 C 232.186 221.818,212.619 243.290,207.500 247.100 C 203.249 250.265,203.385 249.874,207.926 245.871 C 212.959 241.436,217.790 236.386,223.333 229.766 C 227.172 225.181,234.655 216.740,234.928 216.685 C 234.981 216.675,234.879 216.929,234.702 217.250 M248.000 239.833 L 248.000 243.000 235.917 243.000 L 223.833 243.000 223.833 239.833 L 223.833 236.667 235.917 236.667 L 248.000 236.667 248.000 239.833 M195.333 268.951 C 195.792 269.286,196.378 270.159,196.637 270.891 C 197.993 274.727,192.560 277.679,190.041 274.476 C 187.230 270.903,191.668 266.269,195.333 268.951 M195.333 304.951 C 195.792 305.286,196.378 306.159,196.637 306.891 C 197.993 310.727,192.560 313.679,190.041 310.476 C 187.230 306.903,191.668 302.269,195.333 304.951 M264.135 322.037 C 263.786 322.425,262.600 323.495,261.500 324.415 C 259.808 325.831,259.886 325.724,262.000 323.726 C 264.489 321.373,265.345 320.696,264.135 322.037 M195.333 338.951 C 195.792 339.286,196.378 340.159,196.637 340.891 C 197.993 344.727,192.560 347.679,190.041 344.476 C 187.230 340.903,191.668 336.269,195.333 338.951 " stroke="none" fill="#fbfbfb" fill-rule="evenodd"></path><path id="path2" d="M203.418 175.097 C 202.672 176.235,200.537 179.492,198.675 182.333 C 196.812 185.175,195.169 187.500,195.022 187.500 C 194.776 187.500,191.535 183.823,189.728 181.495 C 188.787 180.282,188.586 178.979,191.476 192.833 C 193.213 201.158,198.667 228.222,198.667 228.515 C 198.667 228.548,199.040 228.503,199.496 228.416 C 200.059 228.308,200.392 228.431,200.533 228.800 C 200.792 229.473,200.050 230.424,199.447 230.192 C 198.897 229.981,198.878 229.650,199.643 233.733 C 199.996 235.622,200.397 237.842,200.533 238.667 L 200.780 240.167 201.100 239.000 C 201.576 237.262,216.922 189.713,217.497 188.191 C 218.132 186.513,217.996 186.419,216.449 187.470 C 214.574 188.744,214.753 188.923,209.817 180.824 C 204.399 171.936,205.087 172.552,203.418 175.097 M202.287 183.777 C 202.952 184.579,201.871 185.662,201.132 184.933 C 200.656 184.465,200.631 184.278,200.986 183.850 C 201.511 183.217,201.808 183.201,202.287 183.777 M201.964 192.457 C 202.625 193.253,201.222 194.676,200.487 193.954 C 200.127 193.600,200.010 193.160,200.155 192.704 C 200.408 191.907,201.396 191.772,201.964 192.457 M201.607 201.585 C 201.739 202.518,200.808 202.951,200.129 202.271 C 199.462 201.604,199.893 200.604,200.792 200.732 C 201.233 200.795,201.540 201.117,201.607 201.585 M201.333 209.379 C 201.333 210.227,200.410 210.553,199.784 209.927 C 199.342 209.485,199.346 209.368,199.819 208.895 C 200.476 208.239,201.333 208.513,201.333 209.379 M200.616 215.295 C 201.274 215.712,200.941 216.817,200.122 216.934 C 199.287 217.054,198.813 216.127,199.368 215.458 C 199.808 214.928,199.998 214.903,200.616 215.295 M200.833 222.333 C 200.833 222.854,200.618 223.199,200.249 223.270 C 199.589 223.397,199.160 222.599,199.463 221.809 C 199.781 220.980,200.833 221.383,200.833 222.333 " stroke="none" fill="#64abdb" fill-rule="evenodd"></path><path id="path3" d="M218.667 165.536 C 215.978 167.244,208.787 170.766,206.552 171.469 C 203.905 172.302,200.162 170.565,196.608 166.856 L 195.118 165.302 192.922 165.652 C 189.424 166.211,186.333 167.271,186.333 167.911 C 186.333 169.893,188.877 180.508,189.540 181.293 C 189.946 181.774,191.286 183.367,192.517 184.833 C 193.748 186.300,194.876 187.500,195.022 187.500 C 195.169 187.500,196.812 185.175,198.675 182.333 C 200.537 179.492,202.672 176.235,203.418 175.097 C 205.087 172.552,204.399 171.936,209.817 180.824 C 214.738 188.898,214.581 188.739,216.405 187.500 C 217.079 187.042,217.789 186.667,217.982 186.667 C 218.175 186.667,218.333 186.490,218.333 186.274 C 218.333 186.058,219.749 181.520,221.479 176.191 C 223.209 170.861,224.671 166.050,224.729 165.500 L 224.833 164.500 222.667 164.435 C 220.707 164.377,220.325 164.482,218.667 165.536 M200.986 183.850 C 200.631 184.278,200.656 184.465,201.132 184.933 C 201.674 185.467,201.735 185.463,202.181 184.861 C 202.980 183.783,201.841 182.820,200.986 183.850 M200.155 192.704 C 200.010 193.160,200.127 193.600,200.487 193.954 C 201.222 194.676,202.625 193.253,201.964 192.457 C 201.396 191.772,200.408 191.907,200.155 192.704 M199.864 201.208 C 199.581 201.945,200.437 202.826,201.164 202.547 C 201.503 202.417,201.672 202.048,201.607 201.585 C 201.474 200.649,200.185 200.370,199.864 201.208 M199.819 208.895 C 199.346 209.368,199.342 209.485,199.784 209.927 C 200.410 210.553,201.333 210.227,201.333 209.379 C 201.333 208.513,200.476 208.239,199.819 208.895 M199.368 215.458 C 198.813 216.127,199.287 217.054,200.122 216.934 C 200.941 216.817,201.274 215.712,200.616 215.295 C 199.998 214.903,199.808 214.928,199.368 215.458 M199.463 221.809 C 199.160 222.599,199.589 223.397,200.249 223.270 C 200.618 223.199,200.833 222.854,200.833 222.333 C 200.833 221.383,199.781 220.980,199.463 221.809 M198.889 228.556 C 198.392 229.052,198.678 230.192,199.311 230.240 C 200.111 230.300,200.806 229.512,200.548 228.838 C 200.352 228.327,199.297 228.148,198.889 228.556 " stroke="none" fill="#7fc3f1" fill-rule="evenodd"></path><path id="path4" d="M174.394 103.405 C 173.665 107.225,173.339 111.436,173.336 117.074 L 173.333 122.647 176.583 123.655 C 188.121 127.235,203.360 129.359,213.667 128.825 C 218.210 128.589,224.800 127.830,225.373 127.475 C 225.974 127.104,228.333 123.269,228.147 122.968 C 228.051 122.813,228.235 122.194,228.556 121.593 C 229.035 120.696,229.164 119.392,229.271 114.320 L 229.403 108.140 224.047 108.276 C 211.128 108.605,183.852 104.819,175.313 101.512 C 174.898 101.351,174.713 101.732,174.394 103.405 M186.931 108.118 C 191.256 110.406,188.065 113.064,181.833 112.366 C 177.172 111.844,175.528 110.421,177.347 108.485 C 178.573 107.181,184.714 106.946,186.931 108.118 M210.610 112.757 C 214.351 114.626,214.224 117.969,210.426 117.598 C 206.121 117.177,201.650 115.057,201.677 113.450 C 201.721 110.931,206.251 110.580,210.610 112.757 M236.744 115.390 C 235.415 115.687,235.260 115.844,234.383 117.776 C 233.782 119.102,232.904 120.321,231.936 121.174 C 231.044 121.959,229.980 123.389,229.337 124.668 C 228.739 125.859,227.985 127.208,227.663 127.667 C 227.122 128.435,227.114 128.669,227.562 130.667 C 228.081 132.987,228.312 141.474,227.901 143.167 L 227.659 144.167 228.503 143.167 C 228.967 142.617,230.052 140.791,230.915 139.110 C 231.777 137.428,232.585 136.116,232.710 136.193 C 232.835 136.271,232.859 136.034,232.763 135.667 C 232.656 135.256,232.753 135.000,233.017 135.000 C 233.252 135.000,233.368 134.924,233.275 134.830 C 233.181 134.737,233.285 133.949,233.506 133.080 L 233.907 131.500 235.919 131.441 C 241.552 131.275,245.021 127.448,245.532 120.833 C 245.912 115.905,242.868 114.019,236.744 115.390 M184.078 116.306 C 186.339 118.326,185.005 123.000,182.167 123.000 C 181.714 123.000,180.854 122.562,180.255 122.027 C 177.994 120.007,179.329 115.333,182.167 115.333 C 182.619 115.333,183.479 115.771,184.078 116.306 M207.411 119.973 C 209.673 121.993,208.338 126.667,205.500 126.667 C 205.047 126.667,204.187 126.229,203.589 125.694 C 201.327 123.674,202.662 119.000,205.500 119.000 C 205.953 119.000,206.813 119.438,207.411 119.973 M228.102 145.750 C 227.133 146.771,226.225 148.645,226.903 148.226 C 227.200 148.043,229.396 144.667,229.218 144.667 C 229.170 144.667,228.668 145.154,228.102 145.750 M217.167 155.341 C 211.931 157.828,203.141 158.612,195.885 157.239 C 195.626 157.190,195.410 158.439,195.219 161.086 L 194.936 165.005 196.020 166.253 C 197.505 167.960,200.097 169.883,202.543 171.093 L 204.586 172.103 206.376 171.525 C 208.761 170.755,213.715 168.404,217.415 166.286 L 220.418 164.568 220.219 162.665 C 220.110 161.618,219.918 159.315,219.794 157.547 C 219.670 155.780,219.478 154.346,219.367 154.362 C 219.257 154.378,218.267 154.818,217.167 155.341 M56.471 160.441 C 52.577 163.790,60.839 180.485,69.267 186.299 C 70.968 187.472,73.371 189.369,74.607 190.514 L 76.856 192.596 84.584 187.881 C 93.293 182.568,92.864 183.094,91.484 179.424 C 88.926 172.622,84.397 166.163,82.352 166.401 C 81.156 166.540,81.110 167.752,82.136 172.197 C 83.160 176.639,83.121 176.697,79.750 175.713 C 72.622 173.632,68.734 170.956,64.909 165.501 C 60.665 159.448,58.873 158.374,56.471 160.441 M235.473 176.092 C 237.531 182.395,239.470 188.190,239.783 188.971 L 240.351 190.390 236.986 194.182 C 235.136 196.268,231.744 199.743,229.449 201.906 L 225.275 205.838 229.662 210.919 C 232.075 213.714,234.206 216.000,234.397 216.000 C 234.981 216.000,231.102 211.117,227.754 207.638 L 225.962 205.775 227.231 204.829 C 229.219 203.348,236.171 196.448,238.676 193.470 L 240.944 190.774 240.440 189.137 C 237.951 181.047,232.421 164.846,232.116 164.752 C 231.905 164.686,233.415 169.789,235.473 176.092 M179.345 171.744 C 176.971 176.903,173.064 189.946,173.405 191.575 C 173.473 191.901,173.867 190.892,174.281 189.333 C 176.090 182.515,177.793 177.058,179.338 173.122 C 181.316 168.083,181.320 167.454,179.345 171.744 M253.442 185.583 C 253.053 188.314,253.167 199.942,253.641 205.833 C 254.262 213.555,255.653 225.309,256.205 227.500 C 256.550 228.869,254.375 226.036,252.002 222.026 C 249.196 217.284,248.397 216.483,250.352 220.370 C 252.264 224.174,254.189 227.153,255.384 228.158 C 256.250 228.887,256.501 229.511,257.228 232.751 C 258.722 239.401,261.863 247.545,263.214 248.271 C 263.692 248.527,263.518 247.961,262.453 245.788 C 258.941 238.628,256.651 228.557,255.186 213.833 C 254.113 203.040,253.951 200.216,253.941 192.090 C 253.930 183.188,253.878 182.517,253.442 185.583 M94.653 194.787 C 92.002 196.503,87.621 199.091,84.917 200.537 C 82.213 201.983,80.000 203.354,80.000 203.583 C 80.000 204.164,80.058 204.147,82.758 202.788 C 90.844 198.720,101.613 191.667,99.737 191.667 C 99.592 191.667,97.305 193.071,94.653 194.787 M173.348 192.862 C 173.329 193.330,183.682 204.763,183.914 204.530 C 184.011 204.434,183.042 203.112,181.761 201.594 C 178.606 197.854,173.366 192.415,173.348 192.862 M158.902 199.000 C 158.488 204.998,155.864 228.043,155.113 232.275 C 154.412 236.230,153.271 227.681,153.008 216.500 L 152.789 207.167 152.728 215.509 C 152.663 224.390,152.914 227.703,154.017 232.500 C 154.703 235.483,154.703 235.522,154.082 239.383 C 153.627 242.208,153.565 243.224,153.855 243.112 C 154.993 242.675,159.525 204.759,159.266 197.833 L 159.167 195.167 158.902 199.000 M183.319 206.234 C 181.064 208.802,176.339 216.737,176.335 217.963 C 176.332 218.718,179.720 223.577,182.868 227.333 C 188.647 234.230,195.920 244.515,199.050 250.218 C 199.825 251.631,200.522 252.600,200.598 252.372 C 201.106 250.850,191.810 236.817,184.343 227.833 C 182.667 225.817,180.678 223.342,179.922 222.333 C 179.167 221.325,178.130 219.952,177.618 219.282 L 176.686 218.064 178.346 215.010 C 180.070 211.836,182.075 208.728,183.783 206.583 C 185.106 204.922,184.724 204.634,183.319 206.234 M231.288 220.602 C 229.338 222.746,225.758 226.870,223.333 229.766 C 217.790 236.386,212.959 241.436,207.926 245.871 C 203.385 249.874,203.249 250.265,207.500 247.100 C 212.619 243.290,232.186 221.818,234.702 217.250 C 235.225 216.300,234.997 216.524,231.288 220.602 M120.840 220.322 C 118.256 221.843,114.999 222.757,112.019 222.798 C 110.582 222.817,109.577 222.944,109.786 223.078 C 111.550 224.214,120.482 221.853,122.817 219.634 C 123.466 219.017,122.466 219.365,120.840 220.322 M223.833 239.833 L 223.833 243.000 235.917 243.000 L 248.000 243.000 248.000 239.833 L 248.000 236.667 235.917 236.667 L 223.833 236.667 223.833 239.833 M200.965 239.667 C 200.864 239.942,201.055 242.267,201.388 244.833 C 201.951 249.163,201.994 253.023,201.983 298.305 C 201.972 346.093,202.137 359.667,202.729 359.667 C 203.490 359.667,202.854 250.836,202.060 245.333 C 201.074 238.494,201.184 239.065,200.965 239.667 M271.957 242.000 C 274.838 246.557,276.333 250.671,276.333 254.041 C 276.333 255.280,276.483 256.387,276.667 256.500 C 277.197 256.828,277.066 252.516,276.476 250.241 C 275.865 247.882,274.340 244.726,272.898 242.833 C 271.477 240.970,271.087 240.624,271.957 242.000 M191.333 268.570 C 189.883 269.312,188.854 271.245,189.163 272.650 C 189.991 276.420,194.778 276.996,196.471 273.528 C 198.024 270.346,194.504 266.949,191.333 268.570 M266.189 277.513 C 265.883 277.979,263.054 281.002,259.900 284.230 C 256.747 287.459,254.467 289.942,254.833 289.749 C 255.851 289.212,265.751 278.969,266.436 277.744 C 267.150 276.465,266.980 276.306,266.189 277.513 M244.374 281.968 C 244.121 282.128,244.007 282.408,244.119 282.590 C 244.232 282.772,244.478 284.684,244.667 286.838 C 245.341 294.525,249.715 311.253,254.079 322.833 C 255.324 326.138,255.859 326.829,254.952 323.963 C 248.405 303.264,246.031 294.158,245.213 286.610 C 244.704 281.908,244.405 282.333,248.222 282.333 L 251.333 282.333 251.333 283.297 C 251.333 288.321,256.750 303.573,261.110 310.828 C 261.966 312.252,262.667 313.715,262.667 314.078 C 262.667 314.528,262.826 314.677,263.167 314.546 C 263.442 314.441,263.670 314.537,263.674 314.760 C 263.683 315.241,265.981 318.975,265.992 318.527 C 265.997 318.358,265.526 317.191,264.946 315.934 L 263.893 313.648 264.823 312.678 L 265.753 311.707 267.405 313.515 C 269.237 315.519,271.607 317.504,271.863 317.248 C 271.954 317.157,271.031 316.127,269.812 314.958 C 266.991 312.254,264.795 309.330,259.912 301.778 C 254.317 293.123,254.463 293.438,252.815 286.500 C 252.379 284.667,251.940 282.829,251.838 282.417 C 251.642 281.617,245.510 281.248,244.374 281.968 M191.333 304.570 C 189.883 305.312,188.854 307.245,189.163 308.650 C 189.991 312.420,194.778 312.996,196.471 309.528 C 198.024 306.346,194.504 302.949,191.333 304.570 M262.000 323.726 C 259.886 325.724,259.808 325.831,261.500 324.415 C 263.375 322.846,264.940 321.315,264.635 321.348 C 264.561 321.356,263.375 322.426,262.000 323.726 M191.333 338.570 C 189.883 339.312,188.854 341.245,189.163 342.650 C 189.991 346.420,194.778 346.996,196.471 343.528 C 198.024 340.346,194.504 336.949,191.333 338.570 " stroke="none" fill="#fbcb9c" fill-rule="evenodd"></path></g></svg>